<svg width="29" height="28" viewBox="0 0 29 28" fill="none" xmlns="http://www.w3.org/2000/svg">
<g clip-path="url(#clip0_14_489)">
<path d="M28.0938 14.0469C28.0938 6.28711 21.8066 0 14.0469 0C6.28711 0 0 6.28711 0 14.0469C0 21.0579 5.13674 26.8692 11.8521 27.9238V18.1074H8.28369V14.0469H11.8521V10.952C11.8521 7.43182 13.9478 5.48734 17.1576 5.48734C18.6948 5.48734 20.3023 5.76148 20.3023 5.76148V9.21656H18.5305C16.786 9.21656 16.2417 10.2995 16.2417 11.4103V14.0469H20.1374L19.5144 18.1074H16.2417V27.9238C22.957 26.8692 28.0938 21.0579 28.0938 14.0469Z" fill="black"/>
</g>
<defs>
<clipPath id="clip0_14_489">
<rect width="28.0938" height="27.9238" fill="white"/>
</clipPath>
</defs>
</svg>
