<svg width="1280" height="588" viewBox="0 0 1280 588" fill="none" xmlns="http://www.w3.org/2000/svg">
<path d="M653.5 109.395C425.1 26.893 119.333 127.818 -5 188.593L-18 588C132.333 520.767 477.1 412.512 653.5 517.349C829.9 622.186 1156 561.031 1297 517.349V0C1177.67 70.8411 881.9 191.898 653.5 109.395Z" fill="#4590B8"/>
<path d="M653.5 109.395C425.1 26.893 119.333 127.818 -5 188.593L-18 588C132.333 520.767 477.1 412.512 653.5 517.349C829.9 622.186 1156 561.031 1297 517.349V0C1177.67 70.8411 881.9 191.898 653.5 109.395Z" fill="url(#paint0_linear_46_973)" fill-opacity="0.2"/>
<defs>
<linearGradient id="paint0_linear_46_973" x1="639.5" y1="-2.44713e-05" x2="1265.41" y2="467.19" gradientUnits="userSpaceOnUse">
<stop stop-opacity="0"/>
<stop offset="1"/>
</linearGradient>
</defs>
</svg>
