<svg width="1280" height="822" viewBox="0 0 1280 822" fill="none" xmlns="http://www.w3.org/2000/svg">
<path d="M653.5 152.93C425.1 37.5953 119.333 178.684 -5 263.645L-18 822C132.333 728.012 477.1 576.674 653.5 723.233C829.9 869.791 1156 784.298 1297 723.233V0C1177.67 99.0329 881.9 268.265 653.5 152.93Z" fill="#4590B8"/>
<path d="M653.5 152.93C425.1 37.5953 119.333 178.684 -5 263.645L-18 822C132.333 728.012 477.1 576.674 653.5 723.233C829.9 869.791 1156 784.298 1297 723.233V0C1177.67 99.0329 881.9 268.265 653.5 152.93Z" fill="url(#paint0_linear_46_973)" fill-opacity="0.2"/>
<defs>
<linearGradient id="paint0_linear_46_973" x1="639.5" y1="-3.42098e-05" x2="1397.91" y2="404.944" gradientUnits="userSpaceOnUse">
<stop stop-opacity="0"/>
<stop offset="1"/>
</linearGradient>
</defs>
</svg>
