<svg width="139" height="50" viewBox="0 0 139 50" fill="none" xmlns="http://www.w3.org/2000/svg">
<path d="M59.3713 9.52048C58.8566 8.95646 58.2707 8.5742 57.6155 8.37495C56.9591 8.1757 56.2826 8.07576 55.5856 8.07576C54.5393 8.07576 53.6549 8.20881 52.9328 8.47426C52.2102 8.73972 51.6293 9.13447 51.1896 9.65727C50.7492 10.1807 50.4338 10.8197 50.2433 11.5748C50.0522 12.3306 49.9566 13.1901 49.9566 14.1526V14.7753C49.9566 16.6516 50.4382 18.1132 51.4013 19.1594C52.3644 20.2056 53.9004 20.7284 56.009 20.7284C56.4906 20.7284 56.9597 20.6704 57.4163 20.5542C57.8729 20.438 58.317 20.2887 58.7486 20.1057V16.6935H55.5856V14.0533H61.4637V21.8246C60.6499 22.2569 59.7492 22.6179 58.7611 22.9083C57.7729 23.1988 56.806 23.3443 55.8591 23.3443C54.5143 23.3443 53.302 23.1532 52.2227 22.7715C51.1427 22.3899 50.2302 21.829 49.4825 21.0901C48.7355 20.3518 48.1583 19.4461 47.7517 18.3755C47.3445 17.3043 47.1415 16.0801 47.1415 14.7016V14.1288C47.1415 12.8172 47.3195 11.6254 47.6768 10.5548C48.0334 9.48363 48.5693 8.56671 49.2833 7.80281C49.9972 7.03954 50.8773 6.45366 51.9235 6.04704C52.9697 5.64042 54.1902 5.4368 55.5849 5.4368C56.6811 5.4368 57.7436 5.61981 58.7729 5.98458C59.8023 6.34997 60.6823 6.96459 61.4131 7.8278L59.3707 9.52173L59.3713 9.52048Z" fill="white"/>
<path d="M70.1813 16.5939C69.9983 16.3616 69.7659 16.1954 69.4842 16.0961C69.2019 15.9962 68.9196 15.9468 68.6373 15.9468H66.9933V23.0455H64.1788V5.73389H72.3487C73.0789 5.73389 73.7516 5.85006 74.3662 6.08242C74.9802 6.3154 75.508 6.65144 75.9477 7.09116C76.3874 7.53151 76.7322 8.0543 76.9814 8.66017C77.2306 9.26667 77.3549 9.94312 77.3549 10.6901C77.3549 12.1842 76.977 13.4091 76.2219 14.3641C75.4661 15.3191 74.3912 15.8463 72.9964 15.9456L76.2843 20.1049C76.5498 20.4371 76.7909 20.6526 77.007 20.7526C77.2225 20.8525 77.5379 20.9019 77.9533 20.9019V23.0436C77.7872 23.1267 77.5879 23.1967 77.3555 23.2554C77.1226 23.3135 76.9071 23.3422 76.7078 23.3422C76.2094 23.3422 75.7615 23.1717 75.3631 22.8313C74.9646 22.4915 74.6241 22.1386 74.3418 21.7726L70.1819 16.5914L70.1813 16.5939ZM66.9933 13.356H71.651C72.7135 13.356 73.4605 13.1611 73.8927 12.7707C74.3243 12.381 74.5404 11.687 74.5404 10.6908C74.5404 9.89377 74.3449 9.3004 73.9552 8.91002C73.5648 8.52026 72.8965 8.32476 71.9502 8.32476H66.9933V13.356Z" fill="white"/>
<path d="M83.1582 5.73389V15.4228C83.1582 16.3035 83.2206 17.0755 83.3449 17.7395C83.4692 18.4034 83.6891 18.9562 84.0051 19.3959C84.3206 19.8363 84.7559 20.1679 85.3124 20.3922C85.8683 20.6164 86.5785 20.7288 87.4423 20.7288C88.3062 20.7288 88.9614 20.6127 89.5098 20.3803C90.0576 20.148 90.4935 19.8075 90.8171 19.3591C91.1406 18.9106 91.3692 18.3547 91.5023 17.6901C91.6347 17.0262 91.7015 16.2704 91.7015 15.4234V5.73389H94.516V15.5971C94.516 16.8094 94.3917 17.8925 94.1425 18.8475C93.8933 19.8025 93.4904 20.612 92.9345 21.276C92.378 21.9406 91.6478 22.4509 90.7428 22.8082C89.8377 23.1648 88.7378 23.3434 87.4423 23.3434C86.1469 23.3434 84.972 23.1729 84.0676 22.8325C83.1625 22.4927 82.4361 21.9899 81.8883 21.3253C81.3406 20.6614 80.9458 19.8475 80.7053 18.8844C80.4642 17.9212 80.3443 16.8257 80.3443 15.5964V5.73389H83.1588H83.1582Z" fill="white"/>
<path d="M97.3049 23.0449V5.73389H105.873C106.687 5.73389 107.409 5.86693 108.04 6.13239C108.671 6.39784 109.194 6.76761 109.609 7.24044C110.024 7.71389 110.34 8.27854 110.555 8.93438C110.771 9.59084 110.879 10.3166 110.879 11.1136C110.879 11.9106 110.775 12.6577 110.567 13.3553C110.359 14.053 110.053 14.6545 109.646 15.1611C109.239 15.6676 108.72 16.0661 108.089 16.3566C107.459 16.647 106.72 16.7926 105.873 16.7926H100.119V23.0443H97.3043L97.3049 23.0449ZM100.119 8.32476V14.153H104.902C105.998 14.153 106.799 13.9081 107.306 13.4184C107.812 12.9287 108.065 12.1605 108.065 11.1143C108.065 10.068 107.795 9.40408 107.256 8.97248C106.716 8.54087 105.931 8.32476 104.902 8.32476H100.119Z" fill="white"/>
<path d="M120.419 23.344C119.024 23.344 117.8 23.1236 116.745 22.6838C115.69 22.2441 114.815 21.6251 114.118 20.8281C113.42 20.0311 112.893 19.0849 112.536 17.9887C112.179 16.8925 112.001 15.6889 112.001 14.3772V13.7045C112.001 12.4927 112.208 11.3759 112.623 10.3547C113.038 9.33348 113.62 8.46153 114.367 7.73948C115.114 7.01681 116.003 6.45279 117.033 6.04554C118.062 5.63892 119.191 5.4353 120.42 5.4353C121.649 5.4353 122.778 5.63892 123.807 6.04554C124.836 6.45279 125.721 7.01681 126.46 7.73948C127.198 8.46153 127.775 9.33348 128.191 10.3547C128.605 11.3759 128.813 12.4927 128.813 13.7045V14.3772C128.813 15.6889 128.639 16.8925 128.29 17.9887C127.942 19.0842 127.415 20.0311 126.709 20.8281C126.003 21.6251 125.127 22.2441 124.081 22.6838C123.035 23.1236 121.815 23.344 120.42 23.344H120.419ZM120.419 8.05053C118.593 8.05053 117.219 8.56521 116.297 9.59456C115.376 10.6245 114.915 12.0105 114.915 13.7538V14.3266C114.915 15.2398 115.006 16.0867 115.189 16.8669C115.372 17.6476 115.679 18.3241 116.111 18.8968C116.542 19.4696 117.103 19.9181 117.791 20.2416C118.48 20.5658 119.34 20.7276 120.369 20.7276C121.399 20.7276 122.316 20.5739 123.022 20.2666C123.728 19.9593 124.292 19.5233 124.716 18.9593C125.139 18.3953 125.442 17.7182 125.625 16.9293C125.808 16.1411 125.899 15.2729 125.899 14.3266V13.7538C125.899 12.0105 125.438 10.6239 124.517 9.59456C123.595 8.56521 122.229 8.05053 120.419 8.05053Z" fill="white"/>
<path d="M55.6105 44.5164C54.2157 44.5164 52.9909 44.2959 51.9365 43.8562C50.8816 43.4165 50.0059 42.7975 49.3088 42.0005C48.6117 41.2035 48.084 40.2572 47.7273 39.161C47.37 38.0648 47.192 36.8612 47.192 35.5495V34.8768C47.192 33.6651 47.3994 32.5477 47.8147 31.5264C48.2295 30.5052 48.811 29.6332 49.558 28.9112C50.3051 28.1892 51.1932 27.6245 52.2232 27.2173C53.2526 26.8106 54.3812 26.607 55.6105 26.607C56.8397 26.607 57.9677 26.8106 58.9977 27.2173C60.0271 27.6245 60.9115 28.1885 61.6504 28.9112C62.3893 29.6332 62.9665 30.5052 63.3812 31.5264C63.796 32.5477 64.0039 33.6645 64.0039 34.8768V35.5495C64.0039 36.8612 63.8297 38.0648 63.4805 39.161C63.132 40.2566 62.6048 41.2035 61.899 42.0005C61.1932 42.7975 60.3175 43.4165 59.2713 43.8562C58.2251 44.2959 57.0046 44.5164 55.6098 44.5164H55.6105ZM55.6105 29.2235C53.7835 29.2235 52.41 29.7382 51.4881 30.7675C50.5668 31.7975 50.1058 33.1835 50.1058 34.9274V35.5002C50.1058 36.4134 50.197 37.2603 50.3794 38.0405C50.5618 38.8212 50.8691 39.4977 51.3013 40.0704C51.7329 40.6432 52.2932 41.0917 52.9828 41.4152C53.6717 41.7394 54.5305 41.9012 55.5605 41.9012C56.5905 41.9012 57.5074 41.7475 58.2132 41.4402C58.919 41.1329 59.4837 40.6969 59.9071 40.1329C60.3306 39.5689 60.6336 38.8918 60.816 38.1029C60.9983 37.3147 61.0902 36.4465 61.0902 35.5002V34.9274C61.0902 33.1835 60.6292 31.7975 59.7079 30.7675C58.7866 29.7382 57.4206 29.2235 55.6105 29.2235Z" fill="white"/>
<path d="M66.3949 31.2903C66.3949 30.4271 66.5942 29.7007 66.9927 29.1111C67.3912 28.5214 67.9059 28.0399 68.5367 27.6663C69.1676 27.2928 69.869 27.023 70.6416 26.8569C71.4137 26.6913 72.1732 26.6076 72.9208 26.6076C73.4524 26.6076 73.9877 26.662 74.5273 26.7694C75.067 26.8775 75.5942 27.0355 76.1088 27.2429C76.6235 27.4509 77.1051 27.7082 77.5535 28.0149C78.002 28.3222 78.4005 28.6751 78.749 29.0736L76.8315 30.7919C76.25 30.211 75.6148 29.8081 74.9258 29.5839C74.2369 29.3597 73.4767 29.2479 72.6466 29.2479C72.2644 29.2479 71.8784 29.2816 71.4886 29.3478C71.0982 29.4146 70.7372 29.5221 70.4049 29.6713C70.0726 29.8206 69.8028 30.0199 69.5954 30.2691C69.3874 30.5183 69.2844 30.8256 69.2844 31.1904C69.2844 31.6057 69.3381 31.9462 69.4461 32.2116C69.5542 32.4777 69.7116 32.6976 69.9196 32.8718C70.127 33.0461 70.3718 33.1916 70.6541 33.3078C70.9365 33.424 71.2519 33.5402 71.6004 33.6563C72.3974 33.9218 73.2025 34.1423 74.0164 34.3165C74.8296 34.4908 75.6266 34.7694 76.4074 35.151C77.2706 35.5664 77.9639 36.1142 78.4873 36.795C79.0101 37.4764 79.2718 38.364 79.2718 39.4602C79.2718 40.4065 79.0726 41.2035 78.6741 41.8512C78.2756 42.4989 77.7609 43.0217 77.1301 43.4202C76.4992 43.8187 75.789 44.1016 75.0008 44.2672C74.2119 44.4327 73.4193 44.5164 72.6223 44.5164C71.9252 44.5164 71.2356 44.4371 70.5548 44.2797C69.874 44.1216 69.2307 43.8855 68.6242 43.5695C68.0177 43.2541 67.4661 42.8637 66.9677 42.399C66.4699 41.9343 66.0545 41.3865 65.7222 40.755L68.0389 39.5345C68.5205 40.2815 69.1476 40.8631 69.9196 41.2778C70.6916 41.6932 71.601 41.9005 72.6473 41.9005C73.112 41.9005 73.5729 41.8593 74.0295 41.7756C74.4861 41.6925 74.8927 41.5601 75.25 41.3771C75.6066 41.1947 75.8977 40.9499 76.1219 40.6426C76.3462 40.3359 76.458 39.9661 76.458 39.5345C76.458 39.1529 76.3999 38.8331 76.2837 38.5757C76.1675 38.3184 76.0014 38.1067 75.7859 37.9405C75.5698 37.775 75.3206 37.6332 75.0389 37.517C74.7566 37.4009 74.4574 37.2928 74.1419 37.1935C73.3281 36.9112 72.5105 36.6788 71.6885 36.4958C70.8665 36.3134 70.0651 36.0311 69.285 35.6488C68.8528 35.4333 68.4586 35.2047 68.102 34.9636C67.7447 34.7232 67.4418 34.4321 67.1926 34.0917C66.9433 33.7513 66.7485 33.3571 66.6073 32.9087C66.4661 32.4602 66.3956 31.9212 66.3956 31.2897L66.3949 31.2903Z" fill="white"/>
<path d="M89.5585 44.5164C88.1637 44.5164 86.9389 44.2959 85.8845 43.8562C84.8296 43.4165 83.9539 42.7975 83.2568 42.0005C82.5597 41.2035 82.032 40.2572 81.6753 39.161C81.318 38.0648 81.14 36.8612 81.14 35.5495V34.8768C81.14 33.6651 81.3474 32.5477 81.7628 31.5264C82.1775 30.5052 82.759 29.6332 83.506 28.9112C84.2531 28.1892 85.1413 27.6245 86.1712 27.2173C87.2006 26.8106 88.3292 26.607 89.5585 26.607C90.7877 26.607 91.9157 26.8106 92.9457 27.2173C93.9751 27.6245 94.8595 28.1885 95.5984 28.9112C96.3373 29.6332 96.9145 30.5052 97.3292 31.5264C97.744 32.5477 97.952 33.6645 97.952 34.8768V35.5495C97.952 36.8612 97.7777 38.0648 97.4285 39.161C97.08 40.2566 96.5528 41.2035 95.847 42.0005C95.1412 42.7975 94.2655 43.4165 93.2193 43.8562C92.1731 44.2959 90.9526 44.5164 89.5579 44.5164H89.5585ZM89.5585 29.2235C87.7315 29.2235 86.358 29.7382 85.4361 30.7675C84.5148 31.7975 84.0538 33.1835 84.0538 34.9274V35.5002C84.0538 36.4134 84.145 37.2603 84.3274 38.0405C84.5098 38.8212 84.8171 39.4977 85.2493 40.0704C85.6809 40.6432 86.2412 41.0917 86.9308 41.4152C87.6197 41.7394 88.4785 41.9012 89.5085 41.9012C90.5385 41.9012 91.4554 41.7475 92.1612 41.4402C92.867 41.1329 93.4317 40.6969 93.8552 40.1329C94.2786 39.5689 94.5816 38.8918 94.764 38.1029C94.9463 37.3147 95.0382 36.4465 95.0382 35.5002V34.9274C95.0382 33.1835 94.5772 31.7975 93.6559 30.7675C92.7346 29.7382 91.3686 29.2235 89.5585 29.2235Z" fill="white"/>
<path d="M106.421 37.7663C106.238 37.5339 106.006 37.3678 105.724 37.2685C105.441 37.1685 105.159 37.1192 104.877 37.1192H103.233V44.2179H100.419V26.9069H108.588C109.319 26.9069 109.991 27.023 110.606 27.2554C111.22 27.4877 111.748 27.8244 112.187 28.2641C112.627 28.7045 112.972 29.2273 113.221 29.8331C113.47 30.4396 113.595 31.1161 113.595 31.8631C113.595 33.3578 113.217 34.5827 112.461 35.5371C111.705 36.4921 110.63 37.0193 109.236 37.1186L112.523 41.2778C112.789 41.6101 113.03 41.8256 113.246 41.9255C113.461 42.0255 113.777 42.0748 114.192 42.0748V44.2166C114.026 44.2997 113.826 44.3696 113.594 44.4284C113.362 44.4864 113.146 44.5152 112.946 44.5152C112.449 44.5152 112 44.3447 111.602 44.0042C111.203 43.6645 110.863 43.3115 110.58 42.9455L106.42 37.7644L106.421 37.7663ZM103.233 34.5283H107.891C108.953 34.5283 109.701 34.3334 110.132 33.9431C110.564 33.5533 110.78 32.8594 110.78 31.8631C110.78 31.0661 110.585 30.4727 110.195 30.0824C109.805 29.6926 109.136 29.4971 108.19 29.4971H103.233V34.5283Z" fill="white"/>
<path d="M119.597 26.9069V44.2179H116.783V26.9069H119.597Z" fill="white"/>
<path d="M130.606 44.5164C129.211 44.5164 127.986 44.2959 126.932 43.8562C125.877 43.4165 125.001 42.7975 124.304 42.0005C123.606 41.2035 123.079 40.2572 122.723 39.161C122.365 38.0648 122.187 36.8612 122.187 35.5495V34.8768C122.187 33.6651 122.395 32.5477 122.81 31.5264C123.225 30.5052 123.806 29.6332 124.554 28.9112C125.301 28.1892 126.189 27.6245 127.219 27.2173C128.249 26.8106 129.377 26.607 130.606 26.607C131.836 26.607 132.964 26.8106 133.994 27.2173C135.023 27.6245 135.908 28.1885 136.646 28.9112C137.385 29.6332 137.962 30.5052 138.377 31.5264C138.792 32.5477 139 33.6645 139 34.8768V35.5495C139 36.8612 138.826 38.0648 138.477 39.161C138.129 40.2566 137.601 41.2035 136.896 42.0005C136.19 42.7975 135.314 43.4165 134.268 43.8562C133.222 44.2959 132.001 44.5164 130.606 44.5164H130.606ZM130.606 29.2235C128.779 29.2235 127.405 29.7382 126.484 30.7675C125.563 31.7975 125.102 33.1835 125.102 34.9274V35.5002C125.102 36.4134 125.193 37.2603 125.376 38.0405C125.558 38.8212 125.866 39.4977 126.297 40.0704C126.729 40.6432 127.289 41.0917 127.978 41.4152C128.667 41.7394 129.527 41.9012 130.556 41.9012C131.585 41.9012 132.503 41.7475 133.209 41.4402C133.914 41.1329 134.479 40.6969 134.903 40.1329C135.326 39.5689 135.629 38.8918 135.812 38.1029C135.994 37.3147 136.086 36.4465 136.086 35.5002V34.9274C136.086 33.1835 135.625 31.7975 134.703 30.7675C133.782 29.7382 132.416 29.2235 130.606 29.2235Z" fill="white"/>
<path d="M39.5363 24.9231C39.0978 23.9512 38.3507 23.2223 37.3826 22.7151C38.8617 13.0268 35.6949 3.16552 29.8954 0.971277C18.5145 -3.33477 6.87615 7.33478 2.15099 20.0106C-2.17441 31.6145 0.246565 42.7738 7.41394 47.0779C7.41581 47.0798 7.41706 47.0811 7.42018 47.0829C7.43143 47.0892 7.44954 47.101 7.47577 47.1173C7.49514 47.1304 7.51637 47.1435 7.53761 47.1548C7.57321 47.176 7.61568 47.2022 7.66628 47.2297C7.71687 47.2572 7.76871 47.2865 7.82118 47.3159C7.83929 47.3271 7.86053 47.3371 7.87989 47.3484C7.88801 47.3534 7.89801 47.3584 7.90738 47.3628C7.97608 47.4002 8.05229 47.4408 8.13536 47.4833C8.16284 47.4983 8.1922 47.5127 8.22155 47.527C8.28214 47.5583 8.34398 47.5889 8.40581 47.6182H8.40769C11.7681 49.2603 23.0903 53.2303 34.1172 39.2716C34.1284 39.2572 34.1403 39.2422 34.1515 39.2279C34.936 38.2335 35.7187 37.1454 36.4963 35.9618C36.5063 35.9474 36.5156 35.9324 36.5238 35.9181C36.7099 35.6295 36.8904 35.3391 37.0684 35.0474C37.9866 33.5377 38.8473 31.84 39.4407 30.1654C39.4426 30.1654 39.4426 30.1636 39.4426 30.1623C40.1584 27.9462 40.1209 26.2167 39.5356 24.9219L39.5363 24.9231ZM31.8092 21.8463C29.0909 22.0418 26.0441 22.9031 23.2396 24.2773C23.2365 24.2773 23.2334 24.2791 23.2315 24.2804C19.4863 26.1161 16.1934 28.9418 14.6919 32.2472V32.2491H14.6937C14.6937 32.2491 15.4364 31.9062 16.5307 31.301C18.0897 30.3741 22.0872 28.8531 25.3714 28.8531C26.2452 28.8531 27.1016 28.9331 27.931 29.0849C30.6981 29.5902 30.5937 31.7657 29.2433 34.2341C29.0104 34.6595 28.7724 35.0736 28.5257 35.4752C28.5194 35.4852 28.5144 35.4946 28.5076 35.5027C28.4345 35.6264 28.3577 35.7507 28.2758 35.8743C28.2658 35.8906 28.2565 35.9056 28.2446 35.9218C26.5394 38.5308 23.6612 42.2772 18.2871 43.2441C18.2852 43.2441 18.2852 43.246 18.284 43.246C16.4464 43.5558 14.5744 43.3846 12.7743 42.7125C6.45267 40.3565 5.28902 31.9643 8.69813 22.8207C12.1072 13.677 20.9267 5.86383 26.3889 7.90192C30.5075 9.43596 32.1265 15.3697 31.8086 21.8475L31.8092 21.8463Z" fill="white"/>
</svg>
