<svg width="57" height="28" viewBox="0 0 57 28" fill="none" xmlns="http://www.w3.org/2000/svg">
<g clip-path="url(#clip0_14_432)">
<path fill-rule="evenodd" clip-rule="evenodd" d="M23.5221 5.21266C23.5038 5.46319 23.4856 5.71473 23.4694 5.96628C23.4542 6.21782 23.436 6.46936 23.4198 6.72091C23.4097 6.88355 23.3986 7.0765 23.3884 7.29774C23.3783 7.51898 23.3651 7.77052 23.352 8.05136C22.867 8.0554 22.3841 8.05944 21.9012 8.06449C21.8698 7.57252 21.8415 7.07953 21.8121 6.58554C21.7838 6.09154 21.7544 5.59553 21.7261 5.09951C22.3234 5.13891 22.9217 5.17831 23.5221 5.21266ZM26.9146 5.21569C26.9014 5.3359 26.8863 5.49956 26.8701 5.70766C26.8549 5.91577 26.8336 6.16832 26.8124 6.46532C26.7992 6.68454 26.786 6.91891 26.7759 7.16944C26.7658 7.42098 26.7577 7.68768 26.7496 7.97155C26.5228 7.85841 26.1776 7.69172 25.7159 7.46644C25.5145 7.37755 25.2178 7.24319 24.821 7.0563C24.8159 7.21591 24.8078 7.37553 24.8058 7.53514C24.8027 7.69475 24.7977 7.85336 24.7957 8.01398C24.5162 8.02105 24.2368 8.02913 23.9604 8.03722C23.9523 7.91296 23.9422 7.73516 23.927 7.50079C23.9118 7.26743 23.8906 6.97851 23.8673 6.63403C23.844 6.35521 23.8207 6.0976 23.7995 5.86222C23.7782 5.62583 23.7549 5.41167 23.7347 5.21872C24.168 5.22781 24.6013 5.2369 25.0346 5.247C25.3555 5.4541 25.6764 5.65816 25.9974 5.86121C25.9974 5.71776 25.9943 5.60462 25.9873 5.52279C25.9822 5.45006 25.9721 5.35409 25.9559 5.23488C26.2738 5.22983 26.5957 5.22579 26.9166 5.2167L26.9146 5.21569ZM29.8303 5.06314C29.8121 5.25003 29.7908 5.43591 29.7756 5.62179C29.7605 5.80767 29.7392 5.99456 29.723 6.17943C29.6602 6.1764 29.5246 6.17438 29.318 6.17438C29.1925 6.17842 29.0467 6.18448 28.8766 6.19357C28.8604 6.3835 28.8453 6.57443 28.8321 6.76334C29.0093 6.75525 29.2867 6.73 29.6542 6.68858C29.639 6.74212 29.6127 6.83001 29.5762 6.95326C29.5549 7.027 29.5367 7.11489 29.5134 7.21692C29.4669 7.21288 29.3545 7.20884 29.1793 7.20379C29.0518 7.20379 28.9212 7.20985 28.7956 7.21894C28.7875 7.42402 28.7805 7.62909 28.7744 7.83315C28.2884 7.85841 27.8065 7.88265 27.3236 7.9069C27.3084 7.67758 27.2953 7.44725 27.2821 7.21793C27.269 6.9876 27.2558 6.75727 27.2426 6.52796C27.2345 6.36935 27.2214 6.17943 27.2031 5.95921C27.1849 5.73898 27.1566 5.48743 27.1252 5.20559C28.0252 5.1672 28.9262 5.11871 29.8293 5.06213L29.8303 5.06314ZM32.7086 7.06539C32.6903 7.11489 32.659 7.20783 32.6124 7.34421C32.5891 7.42301 32.5678 7.51595 32.5496 7.62101C31.7691 7.66546 30.9885 7.70991 30.209 7.75436C30.2039 7.61596 30.1938 7.43311 30.1826 7.20581C30.1725 6.97851 30.1593 6.70575 30.1431 6.38956C30.13 6.22792 30.1118 6.03497 30.0935 5.81171C30.0753 5.58846 30.049 5.33489 30.0206 5.05001C30.618 5.00657 31.2183 4.9601 31.8187 4.91363C31.7923 5.29549 31.766 5.67736 31.7427 6.05821C31.7194 6.43906 31.6931 6.81991 31.6698 7.20076C31.8369 7.19066 32.0869 7.16237 32.4241 7.11691C32.4919 7.10782 32.5861 7.09065 32.7086 7.06337V7.06539ZM35.9968 7.44523C35.524 7.46746 35.0523 7.49069 34.5795 7.51392C34.5461 7.43412 34.5147 7.35431 34.4833 7.27349C34.4438 7.28663 34.3446 7.32906 34.1856 7.40078C34.0834 7.4523 33.972 7.51999 33.8465 7.60383C33.7969 7.53312 33.7473 7.4624 33.7007 7.39068C33.6693 7.34926 33.6278 7.29067 33.5731 7.2149C33.5266 7.33512 33.479 7.45432 33.4344 7.57353C33.1834 7.58666 32.9333 7.6008 32.6832 7.61495C32.7379 7.46341 32.8088 7.26238 32.8918 7.01185C32.9758 6.76132 33.0801 6.45926 33.1945 6.10771C33.2654 5.87334 33.3332 5.64402 33.3899 5.42177C33.4476 5.19851 33.5023 4.98132 33.5489 4.77018C34.0652 4.72775 34.5845 4.68431 35.1039 4.64088C35.1272 4.73584 35.1748 4.89444 35.2396 5.11467C35.3043 5.3359 35.3904 5.62179 35.5008 5.97032C35.5605 6.15317 35.6314 6.36632 35.7123 6.6118C35.7933 6.85729 35.8895 7.13509 35.9968 7.44422V7.44523ZM34.3628 6.92194C34.3314 6.85931 34.2818 6.75727 34.2059 6.61483C34.1614 6.53705 34.0935 6.42997 34.0024 6.2946C33.9629 6.36834 33.9012 6.48755 33.8141 6.65423C33.7696 6.74919 33.7118 6.8785 33.6501 7.04216C33.7027 7.03912 33.8202 7.02397 34.0024 6.99872C34.1117 6.98154 34.2322 6.95528 34.3628 6.92194ZM39.4359 5.35207C39.4359 5.58341 39.36 5.78545 39.2112 5.95819C39.0857 6.10266 38.9297 6.20772 38.7414 6.27237C38.8619 6.30773 38.9611 6.36834 39.036 6.45522C39.112 6.54109 39.1504 6.63504 39.1504 6.73505C39.1504 6.98457 38.9702 7.17146 38.6129 7.29471C38.3365 7.39169 37.9761 7.44119 37.5276 7.45533C37.1408 7.46745 36.7268 7.4624 36.2823 7.43412C36.2742 7.28966 36.2611 7.09772 36.2509 6.86032C36.2408 6.62292 36.2246 6.34006 36.2064 6.01174C36.1932 5.83596 36.175 5.62785 36.1568 5.38641C36.1386 5.14497 36.1153 4.87221 36.089 4.56612C36.418 4.4954 36.8331 4.43984 37.3332 4.40954C38.0328 4.36711 38.5572 4.42267 38.9065 4.5843C39.2567 4.74594 39.4339 5.00253 39.4339 5.35207H39.4359ZM38.382 5.74908C38.382 5.65109 38.3274 5.57835 38.2201 5.52986C38.1239 5.48743 37.9983 5.47127 37.8414 5.48137C37.8283 5.67331 37.8151 5.86525 37.8019 6.0572C38.1887 6.05214 38.381 5.9491 38.381 5.75009L38.382 5.74908ZM38.296 6.66332C38.296 6.51482 38.1522 6.44613 37.8677 6.45623C37.8364 6.45724 37.808 6.45926 37.7766 6.4633C37.7716 6.61887 37.7665 6.77445 37.7604 6.93002C38.1178 6.93002 38.296 6.84213 38.296 6.66231V6.66332ZM42.2939 6.77243C42.2757 6.82395 42.2443 6.92194 42.1978 7.0664C42.1745 7.15025 42.1532 7.24925 42.135 7.36239C41.3544 7.34522 40.5739 7.33815 39.7943 7.34118C39.7893 7.18965 39.7791 6.98861 39.768 6.73909C39.7579 6.48856 39.7447 6.18953 39.7285 5.84202C39.7154 5.66422 39.6971 5.45208 39.6789 5.2066C39.6607 4.96212 39.6344 4.68229 39.606 4.36913C40.2033 4.34791 40.8037 4.34589 41.404 4.34387C41.3777 4.75907 41.3514 5.17427 41.3281 5.58846C41.3048 6.00264 41.2785 6.41784 41.2552 6.83102C41.4223 6.83405 41.6723 6.82496 42.0095 6.80576C42.0773 6.80273 42.1714 6.79162 42.2939 6.77344V6.77243ZM45.1357 4.57622C45.1145 4.77927 45.0963 4.98233 45.078 5.18538C45.0598 5.38843 45.0416 5.59149 45.0234 5.79454C44.9606 5.77939 44.8219 5.75009 44.6113 5.71069C44.4655 5.68645 44.3056 5.66523 44.1335 5.64604C44.1203 5.76827 44.1071 5.89152 44.094 6.01477C44.2843 6.03699 44.5951 6.06326 45.0234 6.09861C45.0051 6.14407 44.9768 6.23095 44.9343 6.35723C44.9079 6.43401 44.8877 6.52391 44.8695 6.62595C44.8199 6.6118 44.6943 6.58857 44.4939 6.55422C44.3997 6.54109 44.262 6.52594 44.0788 6.50977C44.0707 6.65423 44.0626 6.79869 44.0555 6.94315C44.1831 6.95427 44.421 6.96942 44.7682 6.98861C44.834 6.99063 44.9403 6.98558 45.0922 6.97548C45.079 7.01488 45.0477 7.10782 44.996 7.25632C44.9727 7.3331 44.9434 7.43008 44.91 7.54827C44.1375 7.47049 43.3651 7.42098 42.5926 7.37856C42.5794 7.12297 42.5643 6.86638 42.5531 6.61079C42.543 6.35521 42.5268 6.09861 42.5167 5.84202C42.5086 5.66725 42.4954 5.45612 42.4802 5.21064C42.465 4.96515 42.4438 4.68431 42.4175 4.36812C43.3225 4.40347 44.2286 4.48227 45.1368 4.57925L45.1357 4.57622ZM47.8237 6.31682C47.6961 6.2653 47.5989 6.23196 47.5311 6.2158C47.4501 6.19661 47.3772 6.20065 47.3094 6.2259C47.2284 6.25722 47.1869 6.31278 47.1869 6.39259C47.1869 6.4532 47.2628 6.59059 47.4116 6.80172C47.5604 7.01286 47.6333 7.19167 47.6333 7.34017C47.6333 7.55534 47.524 7.70587 47.3043 7.79274C47.0957 7.87558 46.8386 7.87457 46.5318 7.82002C46.2484 7.76951 46.0388 7.72809 45.9031 7.67657C45.89 7.61495 45.8616 7.51291 45.8252 7.37351C45.8019 7.29673 45.7675 7.1947 45.7239 7.06741C45.9143 7.13206 46.0428 7.16944 46.1076 7.17954C46.3658 7.21995 46.4944 7.16944 46.4944 7.02296C46.4944 6.9179 46.4427 6.81284 46.3375 6.7108C46.1684 6.57241 46.0003 6.43502 45.8313 6.29561C45.5022 6.02689 45.3382 5.74504 45.3382 5.44602C45.3382 5.14699 45.4951 4.9207 45.8049 4.80857C46.0763 4.71058 46.4367 4.69947 46.8882 4.80453C47.1413 4.86312 47.4288 4.95808 47.7467 5.08739C47.7599 5.29246 47.773 5.49754 47.7862 5.7016C47.7994 5.90667 47.8125 6.11074 47.8257 6.31581L47.8237 6.31682Z" fill="#E30613"/>
<path fill-rule="evenodd" clip-rule="evenodd" d="M12.5173 21.3074C12.5173 21.3074 8.29052 20.6255 8.44238 14.5895C8.44238 14.5895 8.39176 7.39169 14.618 6.38147C14.618 6.38147 20.3887 5.16921 20.6418 12.8468C20.6418 12.8468 20.2874 22.0398 12.5173 21.3074Z" fill="#E30F15"/>
<path fill-rule="evenodd" clip-rule="evenodd" d="M22.1604 18.201L22.4135 19.779C22.4135 19.779 24.2611 20.3467 25.8556 18.9455C25.8556 18.9455 27.0705 17.6575 25.5772 15.5361C25.5772 15.5361 24.7926 14.3996 26.2353 14.147C26.2353 14.147 26.6524 14.1097 26.8306 14.2228L26.6666 10.5103C26.6666 10.5103 24.1103 9.89099 22.4783 11.0659C22.4783 11.0659 21.1115 11.9872 21.1237 13.654C21.1237 13.654 20.9404 14.8097 22.6231 15.9967C22.6231 15.9967 23.6739 16.5392 23.7995 17.5747C23.7995 17.5747 23.9888 18.4202 22.1604 18.2V18.201Z" fill="#E30F15"/>
<path fill-rule="evenodd" clip-rule="evenodd" d="M31.3155 9.97381C31.3155 9.97381 35.2385 9.64549 35.3651 14.6713C35.3651 14.6713 35.3398 19.6971 31.1889 19.6466C31.1889 19.6466 27.6709 19.5961 27.3671 15.4795C27.3671 15.4795 26.6645 10.5102 31.3155 9.97381Z" fill="#E30F15"/>
<path fill-rule="evenodd" clip-rule="evenodd" d="M36.2762 19.4699L35.8966 10.4789C35.8966 10.4789 40.098 9.5445 42.6796 11.5649C42.6796 11.5649 43.9198 12.3478 43.7933 14.8986C43.7933 14.8986 43.3883 16.717 41.8444 17.1211C41.8444 17.1211 42.3506 17.9545 43.7427 19.4699C43.7427 19.4699 41.5154 20.1012 41.3382 20.3285C41.3382 20.3285 40.2499 18.788 39.6678 17.601L39.6232 19.6274L36.2762 19.4699Z" fill="#E30F15"/>
<path fill-rule="evenodd" clip-rule="evenodd" d="M44.5718 20.0699L44.2549 11.2941L44.2428 10.9658L48.2792 11.4325L47.9188 20.4861L44.5718 20.0699Z" fill="#E30F15"/>
<path fill-rule="evenodd" clip-rule="evenodd" d="M51.5887 11.773C51.5887 11.773 55.6383 11.1669 56.676 16.3695C56.676 16.3695 57.1569 21.471 53.6895 21.5721C53.6895 21.5721 50.5257 21.8246 49.1843 18.1879C49.1843 18.1879 47.5645 12.7074 51.5887 11.773Z" fill="#E30F15"/>
<path fill-rule="evenodd" clip-rule="evenodd" d="M14.3072 12.8337C14.3072 12.8337 12.8392 12.8842 12.9911 15.5613C12.9911 15.5613 12.9658 17.8343 14.3831 18.0868C14.3831 18.0868 15.8764 18.4909 16.332 15.1067C16.332 15.1067 16.3826 12.0256 14.3072 12.8337Z" fill="white"/>
<path fill-rule="evenodd" clip-rule="evenodd" d="M31.2902 14.1854C31.2902 14.1854 32.4291 13.9076 32.4797 15.8523C32.4797 15.8523 32.3026 17.7717 31.4167 17.4939C31.4167 17.4939 30.3284 17.6454 30.3284 15.5997C30.3284 15.5997 30.2778 14.1349 31.2902 14.1854Z" fill="white"/>
<path fill-rule="evenodd" clip-rule="evenodd" d="M39.7943 14.3369V16.2311C39.7943 16.2311 41.0598 16.5089 41.1357 15.4734C41.1357 15.4734 41.161 14.2611 39.7943 14.3369Z" fill="white"/>
<path fill-rule="evenodd" clip-rule="evenodd" d="M52.5637 15.9785C52.5637 15.9785 53.8677 15.9533 53.9051 17.8727C53.9051 17.8727 53.7786 19.4769 52.9433 19.3749C52.9433 19.3749 51.8044 19.3628 51.7669 17.3544C51.7669 17.3544 51.6535 15.9907 52.5637 15.9785Z" fill="white"/>
<path fill-rule="evenodd" clip-rule="evenodd" d="M55.7041 23.0389C55.7041 23.0389 41.2775 30.0094 19.3591 26.5242C19.3591 26.5242 1.54088 23.1904 0.0222855 15.1087C0.0222855 15.1087 -0.964802 8.41606 10.374 4.07214C10.374 4.07214 20.574 -0.398061 35.7599 0.662664C35.7599 0.662664 48.4645 0.875818 56.9686 5.89658C56.9686 5.89658 44.3147 0.056535 28.6225 2.02645C28.6225 2.02645 15.7398 2.9609 9.66537 7.75942C9.66537 7.75942 5.51454 10.7901 5.71702 14.1743C5.71702 14.1743 5.26144 20.3366 18.1189 24.0744C18.1189 24.0744 25.3677 26.6656 35.9371 26.2969C35.9371 26.2969 47.1858 26.612 57 22.0853C57 22.0853 56.9312 22.2944 55.7041 23.0389Z" fill="#FFEB00"/>
<path fill-rule="evenodd" clip-rule="evenodd" d="M46.7778 24.2249C46.7262 24.2037 46.6887 24.1905 46.6614 24.1865C46.63 24.1814 46.6007 24.1865 46.5743 24.2057C46.543 24.2279 46.5247 24.2622 46.5247 24.3077C46.5247 24.342 46.5541 24.4148 46.6138 24.5249C46.6725 24.634 46.7009 24.731 46.7009 24.8158C46.7009 24.9371 46.6584 25.03 46.5713 25.0936C46.4883 25.1543 46.3881 25.1755 46.2645 25.1553C46.1532 25.1371 46.0702 25.1149 46.0165 25.0886C46.0125 25.0542 46.0013 24.9977 45.9851 24.9189C45.976 24.8765 45.9629 24.8199 45.9446 24.7482C46.0206 24.7815 46.0722 24.7997 46.0965 24.8037C46.1998 24.8209 46.2484 24.7886 46.2484 24.7057C46.2484 24.6461 46.2281 24.5885 46.1876 24.534C46.1208 24.4592 46.053 24.3845 45.9861 24.3097C45.8566 24.1643 45.7918 24.0067 45.7918 23.8369C45.7918 23.6672 45.8545 23.5369 45.977 23.4682C46.0843 23.4076 46.2251 23.3945 46.4043 23.4268C46.5055 23.445 46.6189 23.4813 46.7444 23.5349C46.7485 23.6501 46.7535 23.7652 46.7576 23.8804C46.7616 23.9955 46.7687 24.1107 46.7758 24.2259L46.7778 24.2249ZM45.7158 23.347C45.7067 23.4611 45.6976 23.5763 45.6915 23.6915C45.6844 23.8056 45.6784 23.9218 45.6713 24.036C45.647 24.0279 45.5913 24.0097 45.5083 23.9844C45.4496 23.9693 45.3878 23.9561 45.32 23.946C45.3129 24.0157 45.3088 24.0855 45.3048 24.1562C45.3787 24.1673 45.5012 24.1834 45.6713 24.2067C45.6642 24.2319 45.651 24.2804 45.6358 24.3522C45.6267 24.3956 45.6176 24.4461 45.6085 24.5027C45.5903 24.4946 45.5417 24.4804 45.4607 24.4582C45.4253 24.4512 45.3686 24.4431 45.2977 24.436C45.2937 24.5178 45.2886 24.6007 45.2866 24.6825C45.3382 24.6875 45.4324 24.6936 45.5711 24.7057C45.5954 24.7077 45.6379 24.7057 45.6986 24.7007C45.6915 24.7219 45.6804 24.7754 45.6601 24.8583C45.651 24.9017 45.6379 24.9563 45.6247 25.0219C45.318 24.9795 45.0142 24.9482 44.7095 24.9148C44.7024 24.7684 44.6984 24.6229 44.6933 24.4764C44.6893 24.3309 44.6842 24.1845 44.6801 24.038C44.6761 23.938 44.671 23.8167 44.6639 23.6773C44.6569 23.5369 44.6488 23.3763 44.6396 23.1965C44.997 23.2389 45.3554 23.2813 45.7148 23.345L45.7158 23.347ZM44.5911 24.5673C44.584 24.5966 44.5728 24.6512 44.5526 24.732C44.5435 24.7795 44.5344 24.835 44.5283 24.8987C44.2195 24.8653 43.9107 24.8441 43.603 24.8259C43.6009 24.737 43.5959 24.6199 43.5938 24.4754C43.5918 24.3299 43.5857 24.1552 43.5787 23.9531C43.5746 23.8491 43.5655 23.7248 43.5584 23.5814C43.5513 23.4379 43.5402 23.2743 43.529 23.0914C43.7659 23.1076 44.0029 23.1237 44.2398 23.152C44.2286 23.3884 44.2175 23.6248 44.2084 23.8602C44.1993 24.0966 44.1901 24.333 44.181 24.5693C44.2458 24.5764 44.3461 24.5794 44.4787 24.5784C44.505 24.5784 44.5435 24.5754 44.59 24.5683L44.5911 24.5673ZM42.8467 24.4118C42.8356 24.3713 42.8153 24.3047 42.7839 24.2138C42.7657 24.1632 42.7394 24.0935 42.7039 24.0046C42.6877 24.0481 42.6634 24.1188 42.63 24.2178C42.6118 24.2744 42.5895 24.3522 42.5652 24.4512C42.5855 24.4512 42.6321 24.4481 42.7039 24.4411C42.7485 24.436 42.7961 24.4249 42.8467 24.4118ZM43.4926 24.8199C43.3043 24.8088 43.117 24.7987 42.9317 24.7876C42.9186 24.737 42.9054 24.6855 42.8933 24.635C42.8781 24.6411 42.8396 24.6613 42.7768 24.6987C42.7363 24.7259 42.6918 24.7633 42.6422 24.8108C42.6219 24.7643 42.6017 24.7189 42.5845 24.6724C42.5733 24.6451 42.5551 24.6067 42.5329 24.5562C42.5146 24.629 42.4974 24.7017 42.4792 24.7754C42.379 24.7734 42.2798 24.7724 42.1815 24.7704C42.2018 24.6774 42.2312 24.5532 42.2646 24.3996C42.298 24.2451 42.3385 24.0612 42.383 23.846C42.4093 23.7026 42.4367 23.5622 42.4589 23.4268C42.4812 23.2904 42.5035 23.1581 42.5237 23.0288C42.7272 23.0399 42.9327 23.053 43.1393 23.0672C43.1484 23.1268 43.1686 23.2268 43.1929 23.3652C43.2172 23.5046 43.2527 23.6834 43.2962 23.9026C43.3185 24.0168 43.3478 24.1511 43.3792 24.3037C43.4106 24.4572 43.4511 24.63 43.4936 24.8219L43.4926 24.8199ZM41.7169 23.9117C41.7169 23.84 41.6895 23.7874 41.6338 23.7551C41.5933 23.7319 41.5448 23.7208 41.484 23.7228C41.482 23.8531 41.48 23.9834 41.4769 24.1127C41.5326 24.1127 41.5842 24.1006 41.6288 24.0733C41.6865 24.038 41.7158 23.9844 41.7158 23.9117H41.7169ZM42.1815 23.6743C42.1815 23.8137 42.1451 23.9359 42.0742 24.044C42.0135 24.136 41.9355 24.2036 41.8414 24.242C41.8616 24.2764 41.9102 24.3501 41.9892 24.4602C42.0277 24.5108 42.0854 24.5784 42.1664 24.6613C42.135 24.6734 42.0631 24.7037 41.9538 24.7562C41.8778 24.7926 41.806 24.83 41.7391 24.8663C41.7189 24.8391 41.6743 24.7673 41.6075 24.6522C41.5761 24.5936 41.5296 24.4956 41.4688 24.3572H41.4668C41.4627 24.4906 41.4597 24.6229 41.4577 24.7562C41.2653 24.7593 41.073 24.7613 40.8806 24.7653C40.8766 24.6815 40.8715 24.5714 40.8675 24.434C40.8634 24.2966 40.8563 24.1319 40.8492 23.94C40.8452 23.8268 40.8401 23.6925 40.834 23.5359C40.827 23.3803 40.8189 23.2015 40.8077 23.0015C40.996 22.9762 41.1681 22.9621 41.322 22.9651C41.6085 22.9712 41.8232 23.0338 41.9659 23.151C42.1087 23.2682 42.1826 23.443 42.1826 23.6723L42.1815 23.6743ZM40.752 24.0137C40.745 24.0794 40.7358 24.2026 40.7227 24.3835C40.7156 24.4916 40.7095 24.6188 40.7024 24.7673C40.6103 24.7987 40.4767 24.8158 40.3025 24.8189C40.0434 24.8229 39.8308 24.7663 39.6678 24.6401C39.5716 24.5653 39.4977 24.4703 39.4511 24.3552C39.4045 24.24 39.3792 24.1046 39.3792 23.9491C39.3792 23.7935 39.4015 23.6662 39.442 23.548C39.4825 23.4298 39.5473 23.3268 39.6323 23.2389C39.7913 23.0752 39.9988 22.9924 40.256 22.9884C40.3542 22.9863 40.4595 22.9944 40.5708 23.0086C40.5799 23.1298 40.589 23.25 40.5982 23.3712C40.6073 23.4914 40.6164 23.6127 40.6275 23.7329C40.583 23.7147 40.5182 23.7066 40.4352 23.7076C40.3299 23.7097 40.2337 23.747 40.1487 23.8218C40.0525 23.9056 40.0059 24.0107 40.0059 24.137C40.0059 24.2562 40.0464 24.3481 40.1264 24.4118C40.1952 24.4663 40.2742 24.4906 40.3633 24.4865C40.3562 24.4097 40.3521 24.333 40.3471 24.2562C40.343 24.2087 40.3339 24.1309 40.3177 24.0218C40.4605 24.0198 40.6063 24.0168 40.752 24.0147V24.0137ZM39.2962 23.0419C39.2871 23.1641 39.28 23.2864 39.2739 23.4076C39.2669 23.5288 39.2608 23.6511 39.2537 23.7733C39.2264 23.7703 39.1727 23.7642 39.0907 23.7561C39.033 23.7521 38.9702 23.7511 38.9004 23.7531C38.8933 23.8268 38.8892 23.8996 38.8852 23.9733C38.9611 23.9733 39.0846 23.9652 39.2547 23.9521C39.2456 23.9804 39.2355 24.0349 39.2193 24.1127C39.2092 24.1602 39.2011 24.2148 39.1919 24.2764C39.1717 24.2713 39.1231 24.2673 39.0441 24.2622C39.0057 24.2622 38.952 24.2622 38.8811 24.2673C38.8771 24.3532 38.872 24.439 38.87 24.5249C38.9216 24.5219 39.0158 24.5128 39.1514 24.4976C39.1778 24.4936 39.2203 24.4825 39.281 24.4643C39.2739 24.4885 39.2628 24.5461 39.2426 24.638C39.2314 24.6855 39.2203 24.7451 39.2071 24.8169C38.9004 24.83 38.5967 24.8431 38.2919 24.8613C38.2848 24.7108 38.2788 24.5603 38.2737 24.4097C38.2696 24.2592 38.2646 24.1087 38.2605 23.9582C38.2585 23.8551 38.2514 23.7309 38.2474 23.5874C38.2433 23.443 38.2322 23.2783 38.2231 23.0934C38.5815 23.0742 38.9388 23.0581 39.2962 23.0419ZM38.1623 23.0975C38.1552 23.2187 38.1492 23.3399 38.1441 23.4611C38.1401 23.5824 38.135 23.7036 38.1309 23.8248C38.1046 23.8218 38.0621 23.8188 38.0034 23.8157C37.968 23.8157 37.9092 23.8167 37.8262 23.8198C37.8242 23.8652 37.8151 23.9753 37.806 24.1491C37.8019 24.234 37.7948 24.338 37.7898 24.4623C37.7857 24.5855 37.7766 24.73 37.7675 24.8926C37.6025 24.9027 37.4364 24.9128 37.2734 24.9219C37.2714 24.8451 37.2643 24.7451 37.2603 24.6239C37.2562 24.5027 37.2502 24.3592 37.2421 24.1935C37.237 24.0794 37.2289 23.9673 37.2218 23.8582C37.1661 23.8642 37.1125 23.8703 37.0588 23.8763C37.0092 23.8854 36.9606 23.8945 36.913 23.9036C36.908 23.7834 36.9039 23.6632 36.8999 23.543C36.8958 23.4228 36.8908 23.3025 36.8867 23.1823C37.3119 23.153 37.7361 23.1247 38.1613 23.0965L38.1623 23.0975ZM36.827 23.1874C36.8229 23.2652 36.8138 23.3722 36.8088 23.5076C36.8047 23.643 36.7966 23.8076 36.7885 24.0006C36.7824 24.143 36.7774 24.2956 36.7723 24.4592C36.7683 24.6229 36.7632 24.7966 36.7612 24.9815C36.6721 24.9088 36.5354 24.8007 36.3542 24.6572C36.2742 24.6007 36.1547 24.5168 35.9988 24.4047C35.9968 24.5057 35.9918 24.6077 35.9918 24.7088C35.9918 24.8098 35.9897 24.9108 35.9897 25.0118C35.8784 25.0199 35.768 25.028 35.6587 25.0361C35.6566 24.9593 35.6496 24.8472 35.6455 24.7017C35.6415 24.5562 35.6334 24.3764 35.6232 24.1632C35.6151 23.9895 35.605 23.8299 35.5969 23.6844C35.5878 23.5379 35.5787 23.4056 35.5696 23.2874C35.7397 23.2732 35.9118 23.2601 36.0839 23.246C36.2094 23.3712 36.337 23.4955 36.4645 23.6197C36.4645 23.5278 36.4625 23.4541 36.4605 23.4026C36.4585 23.3561 36.4534 23.2945 36.4494 23.2177C36.5749 23.2076 36.6994 23.1975 36.827 23.1874ZM35.4876 23.2945C35.4805 23.451 35.4744 23.6066 35.4673 23.7632C35.4602 23.9198 35.4542 24.0754 35.4471 24.2319C35.443 24.333 35.438 24.4522 35.4339 24.5896C35.4299 24.7269 35.4248 24.8815 35.4208 25.0553C35.2284 25.0694 35.036 25.0846 34.8457 25.0987C34.8326 24.8088 34.8214 24.5178 34.8103 24.2279C34.7991 23.938 34.788 23.647 34.7769 23.3571C35.0138 23.3369 35.2507 23.3167 35.4876 23.2965V23.2945ZM33.564 24.0774C33.5144 24.0683 33.477 24.0652 33.4496 24.0673C33.4182 24.0693 33.3899 24.0844 33.3626 24.1107C33.3291 24.143 33.3129 24.1824 33.3129 24.2299C33.3129 24.2663 33.3423 24.333 33.402 24.433C33.4608 24.532 33.4891 24.6259 33.4891 24.7128C33.4891 24.8391 33.4466 24.9462 33.3595 25.034C33.2765 25.1179 33.1743 25.1644 33.0528 25.1735C32.9414 25.1815 32.8584 25.1785 32.8047 25.1654C32.8007 25.131 32.7895 25.0755 32.7733 24.9977C32.7642 24.9563 32.7511 24.9007 32.7328 24.832C32.8088 24.8472 32.8604 24.8532 32.8847 24.8512C32.988 24.8441 33.0366 24.7977 33.0366 24.7118C33.0366 24.6502 33.0163 24.5956 32.9758 24.5491C32.909 24.4895 32.8412 24.4289 32.7744 24.3693C32.6448 24.2521 32.58 24.1067 32.58 23.9329C32.58 23.7592 32.6427 23.6086 32.7652 23.5046C32.8726 23.4147 33.0133 23.3621 33.1925 23.347C33.2927 23.3389 33.4071 23.345 33.5326 23.3662C33.5367 23.4844 33.5418 23.6036 33.5458 23.7218C33.5498 23.84 33.5549 23.9582 33.561 24.0764L33.564 24.0774ZM32.0211 24.5168C32.0211 24.3077 31.9563 24.2087 31.8288 24.2188C31.7032 24.2279 31.6405 24.337 31.6405 24.5471C31.6405 24.631 31.6577 24.7088 31.6901 24.7785C31.7275 24.8583 31.7731 24.8956 31.8267 24.8916C31.8804 24.8876 31.925 24.8421 31.9654 24.7562C32.0029 24.6774 32.0211 24.5976 32.0211 24.5168ZM32.5132 24.2804C32.5132 24.4138 32.4949 24.538 32.4666 24.6522C32.4372 24.7663 32.3886 24.8734 32.3279 24.9684C32.1993 25.1704 32.0302 25.2785 31.8267 25.2917C31.6192 25.3058 31.4491 25.2179 31.3195 25.0351C31.2578 24.9482 31.2102 24.8512 31.1808 24.7421C31.1515 24.633 31.1363 24.5128 31.1363 24.3804C31.1363 24.24 31.1545 24.1127 31.1859 24.0006C31.2173 23.8885 31.2689 23.7895 31.3357 23.7036C31.4613 23.544 31.6263 23.4561 31.8278 23.4389C32.0272 23.4228 32.1912 23.4844 32.3157 23.6278C32.3815 23.7036 32.4322 23.7955 32.4635 23.9046C32.4949 24.0137 32.5152 24.138 32.5152 24.2794L32.5132 24.2804ZM31.0573 23.5642C31.0502 23.7167 31.0442 23.8703 31.0371 24.0228C31.03 24.1754 31.0239 24.3279 31.0168 24.4815C31.0128 24.5805 31.0057 24.6966 31.0037 24.831C31.0016 24.9654 30.9966 25.1169 30.9925 25.2866C30.8002 25.2987 30.6078 25.3108 30.4175 25.322C30.4043 25.0371 30.3932 24.7532 30.3821 24.4683C30.3709 24.1845 30.3598 23.8996 30.3486 23.6157C30.5835 23.5985 30.8204 23.5814 31.0573 23.5642ZM30.2585 24.3218C30.2201 24.3107 30.1735 24.3077 30.1158 24.3097C30.0065 24.3158 29.9174 24.3522 29.8495 24.4158C29.7716 24.4906 29.7331 24.5916 29.7331 24.7219C29.7331 24.8239 29.7625 24.9057 29.8252 24.9684C29.886 25.03 29.966 25.0593 30.0642 25.0553C30.131 25.0522 30.1958 25.031 30.2565 24.9916C30.2494 25.0219 30.2383 25.0785 30.2211 25.1613C30.212 25.2149 30.2029 25.2725 30.1938 25.331C30.1178 25.3664 30.0196 25.3866 29.9012 25.3917C29.6845 25.4018 29.5003 25.3321 29.3464 25.1815C29.2634 25.1007 29.1986 25.0048 29.1581 24.8956C29.1176 24.7865 29.0953 24.6633 29.0953 24.5259C29.0953 24.3996 29.1135 24.2845 29.149 24.1794C29.1844 24.0754 29.238 23.9814 29.3099 23.9006C29.4638 23.7248 29.6744 23.6298 29.9427 23.6147C30.0723 23.6076 30.1664 23.6107 30.2241 23.6238C30.2282 23.74 30.2353 23.8551 30.2403 23.9713C30.2444 24.0875 30.2515 24.2026 30.2585 24.3188V24.3218ZM29.0194 23.6905C29.0123 23.841 29.0062 23.9915 28.9991 24.143C28.992 24.2936 28.986 24.4441 28.9789 24.5946C28.9748 24.6916 28.9698 24.8067 28.9657 24.9391C28.9617 25.0714 28.9566 25.2209 28.9526 25.3886C28.7602 25.3927 28.5678 25.3967 28.3775 25.4018C28.3643 25.1209 28.3532 24.8391 28.3421 24.5582C28.3309 24.2774 28.3198 23.9966 28.3087 23.7157C28.5456 23.7086 28.7825 23.7016 29.0194 23.6915V23.6905ZM28.257 23.7167C28.2277 23.8076 28.1902 23.9269 28.1457 24.0754C28.1011 24.2239 28.0475 24.4006 27.9847 24.6057C27.9553 24.7017 27.9199 24.8179 27.8845 24.9532C27.849 25.0876 27.8085 25.2422 27.764 25.4149C27.6455 25.4179 27.5271 25.4189 27.4086 25.4189C27.3844 25.3351 27.353 25.226 27.3145 25.0896C27.276 24.9532 27.2325 24.7906 27.1778 24.6027C27.1474 24.4986 27.109 24.3744 27.0634 24.2299C27.0189 24.0855 26.9672 23.9218 26.9065 23.7379C27.1485 23.739 27.3894 23.74 27.6314 23.7359C27.6385 23.8046 27.6536 23.9167 27.6779 24.0733C27.6962 24.1562 27.7225 24.2703 27.7579 24.4158C27.7761 24.3441 27.8045 24.2279 27.8409 24.0673C27.8592 23.9804 27.8794 23.8672 27.8986 23.7288C28.0171 23.7248 28.1355 23.7218 28.256 23.7187L28.257 23.7167ZM26.4145 24.5986C26.4145 24.5299 26.3881 24.4794 26.3335 24.4501C26.293 24.4279 26.2414 24.4178 26.1816 24.4208C26.1796 24.5451 26.1776 24.6694 26.1745 24.7936C26.2322 24.7936 26.2818 24.7815 26.3264 24.7542C26.3841 24.7199 26.4135 24.6683 26.4135 24.5986H26.4145ZM26.8802 24.3663C26.8802 24.5007 26.8447 24.6188 26.7749 24.7209C26.7131 24.8118 26.6342 24.8754 26.542 24.9138C26.5603 24.9472 26.6089 25.0159 26.6878 25.1209C26.7263 25.1694 26.786 25.2331 26.867 25.3129C26.8336 25.325 26.7637 25.3543 26.6544 25.4048C26.5785 25.4402 26.5046 25.4765 26.4378 25.5119C26.4175 25.4856 26.375 25.4179 26.3061 25.3078C26.2748 25.2523 26.2302 25.1593 26.1695 25.028H26.1674C26.1634 25.1553 26.1583 25.2815 26.1563 25.4088C25.964 25.4018 25.7716 25.3927 25.5813 25.3836C25.5772 25.3038 25.5701 25.1987 25.5661 25.0684C25.562 24.9381 25.5539 24.7815 25.5479 24.5997C25.5448 24.4916 25.5387 24.3643 25.5327 24.2158C25.5256 24.0673 25.5165 23.8976 25.5084 23.7076C25.6936 23.6945 25.8658 23.6955 26.0206 23.6996C26.3072 23.7066 26.5218 23.7592 26.6645 23.8693C26.8073 23.9794 26.8812 24.1451 26.8812 24.3653L26.8802 24.3663ZM25.4173 23.7046C25.4081 23.8188 25.4021 23.9339 25.395 24.0481C25.3879 24.1632 25.3818 24.2774 25.3747 24.3915C25.3474 24.3865 25.2937 24.3764 25.2097 24.3612C25.154 24.3532 25.0913 24.3471 25.0214 24.342C25.0143 24.4107 25.0103 24.4804 25.0062 24.5491C25.0822 24.5552 25.2057 24.5582 25.3758 24.5613C25.3666 24.5875 25.3565 24.637 25.3403 24.7098C25.3302 24.7542 25.3201 24.8047 25.313 24.8613C25.2927 24.8552 25.2431 24.8472 25.1652 24.835C25.1277 24.831 25.073 24.828 25.0022 24.8259C24.9981 24.9068 24.9931 24.9876 24.991 25.0684C25.0427 25.0704 25.1368 25.0684 25.2725 25.0674C25.2998 25.0674 25.3413 25.0593 25.4001 25.0472C25.396 25.0694 25.3818 25.1229 25.3646 25.2078C25.3535 25.2512 25.3423 25.3068 25.3292 25.3735C25.0224 25.3593 24.7167 25.3452 24.412 25.3189C24.4049 25.1765 24.4008 25.033 24.3968 24.8906C24.3927 24.7482 24.3877 24.6047 24.3836 24.4623C24.3816 24.3643 24.3765 24.2471 24.3704 24.1097C24.3634 23.9723 24.3542 23.8157 24.3431 23.6399C24.7005 23.6723 25.0589 23.6884 25.4193 23.7056L25.4173 23.7046ZM24.2631 24.3168C24.2115 24.2996 24.174 24.2895 24.1467 24.2875C24.1153 24.2845 24.086 24.2925 24.0596 24.3138C24.0283 24.339 24.0131 24.3744 24.0131 24.4198C24.0131 24.4542 24.0424 24.5249 24.1001 24.63C24.1578 24.735 24.1872 24.829 24.1872 24.9128C24.1872 25.034 24.1447 25.129 24.0576 25.1997C23.9746 25.2664 23.8744 25.2947 23.7509 25.2836C23.6395 25.2735 23.5565 25.2583 23.5048 25.2361C23.4978 25.2017 23.4866 25.1472 23.4714 25.0694C23.4623 25.028 23.4492 24.9724 23.433 24.9027C23.5069 24.929 23.5585 24.9431 23.5828 24.9462C23.6861 24.9552 23.7347 24.9189 23.7347 24.8371C23.7347 24.7775 23.7144 24.7219 23.6739 24.6714C23.6071 24.6027 23.5393 24.534 23.4724 24.4643C23.3429 24.3299 23.2801 24.1784 23.2801 24.0107C23.2801 23.843 23.3408 23.7076 23.4633 23.6288C23.5706 23.5601 23.7114 23.5349 23.8906 23.5511C23.9908 23.5601 24.1052 23.5874 24.2307 23.6298C24.2348 23.745 24.2398 23.8592 24.2439 23.9733C24.2479 24.0875 24.255 24.2016 24.2621 24.3168H24.2631Z" fill="#E31019"/>
</g>
<defs>
<clipPath id="clip0_14_432">
<rect width="57" height="27" fill="white" transform="translate(0 0.5)"/>
</clipPath>
</defs>
</svg>
