<svg width="211" height="99" viewBox="0 0 211 99" fill="none" xmlns="http://www.w3.org/2000/svg">
<g clip-path="url(#clip0_15_2717)">
<path fill-rule="evenodd" clip-rule="evenodd" d="M87.0729 17.2797C87.0054 18.1983 86.938 19.1207 86.878 20.043C86.8218 20.9653 86.7543 21.8876 86.6944 22.81C86.6569 23.4063 86.6157 24.1138 86.5782 24.925C86.5407 25.7362 86.492 26.6586 86.4433 27.6883C84.6482 27.7031 82.8605 27.7179 81.0729 27.7364C80.9567 25.9325 80.8518 24.1249 80.7431 22.3136C80.6382 20.5023 80.5295 18.6836 80.4246 16.8649C82.6357 17.0093 84.8505 17.1538 87.0729 17.2797ZM99.6312 17.2908C99.5825 17.7316 99.5263 18.3317 99.4664 19.0947C99.4101 19.8578 99.3314 20.7838 99.2527 21.8728C99.204 22.6766 99.1553 23.536 99.1178 24.4546C99.0803 25.3769 99.0504 26.3548 99.0204 27.3957C98.1809 26.9808 96.903 26.3696 95.194 25.5436C94.4482 25.2176 93.3502 24.725 91.8811 24.0397C91.8624 24.625 91.8324 25.2102 91.8249 25.7955C91.8137 26.3807 91.7949 26.9623 91.7874 27.5512C90.7531 27.5772 89.7187 27.6068 88.6956 27.6364C88.6656 27.1808 88.6282 26.5289 88.5719 25.6696C88.5157 24.8139 88.437 23.7545 88.3508 22.4914C88.2646 21.4691 88.1784 20.5245 88.0997 19.6615C88.021 18.7947 87.9348 18.0094 87.8599 17.3019C89.4639 17.3353 91.0679 17.3686 92.6719 17.4057C93.8599 18.165 95.0479 18.9132 96.2359 19.6578C96.2359 19.1318 96.2246 18.7169 96.1984 18.4169C96.1797 18.1502 96.1422 17.7983 96.0822 17.3612C97.259 17.3427 98.4507 17.3279 99.6387 17.2945L99.6312 17.2908ZM110.424 16.7315C110.357 17.4168 110.278 18.0983 110.222 18.7799C110.166 19.4614 110.087 20.1467 110.027 20.8246C109.795 20.8135 109.293 20.806 108.528 20.806C108.063 20.8209 107.524 20.8431 106.894 20.8764C106.834 21.5728 106.778 22.2729 106.729 22.9655C107.385 22.9359 108.412 22.8433 109.772 22.6914C109.716 22.8878 109.619 23.21 109.484 23.6619C109.405 23.9323 109.338 24.2546 109.251 24.6287C109.079 24.6139 108.663 24.5991 108.015 24.5805C107.543 24.5805 107.059 24.6028 106.594 24.6361C106.564 25.388 106.538 26.14 106.516 26.8882C104.717 26.9808 102.933 27.0697 101.145 27.1586C101.089 26.3178 101.04 25.4732 100.992 24.6324C100.943 23.7879 100.894 22.9433 100.845 22.1025C100.816 21.5209 100.767 20.8246 100.699 20.0171C100.632 19.2096 100.527 18.2872 100.411 17.2538C103.742 17.113 107.078 16.9352 110.421 16.7278L110.424 16.7315ZM121.079 24.0731C121.012 24.2546 120.895 24.5954 120.723 25.0954C120.637 25.3843 120.558 25.7251 120.491 26.1103C117.601 26.2733 114.712 26.4363 111.826 26.5993C111.807 26.0918 111.77 25.4214 111.729 24.5879C111.691 23.7545 111.642 22.7544 111.582 21.595C111.534 21.0024 111.466 20.2949 111.399 19.4763C111.331 18.6577 111.234 17.7279 111.129 16.6834C113.34 16.5241 115.562 16.3537 117.785 16.1833C117.687 17.5835 117.59 18.9836 117.504 20.3801C117.418 21.7765 117.32 23.173 117.234 24.5694C117.852 24.5324 118.778 24.4287 120.026 24.262C120.277 24.2286 120.626 24.1657 121.079 24.0657V24.0731ZM133.251 25.4658C131.501 25.5473 129.755 25.6325 128.005 25.7177C127.881 25.4251 127.765 25.1325 127.649 24.8361C127.502 24.8843 127.135 25.0398 126.547 25.3028C126.168 25.4918 125.756 25.7399 125.291 26.0474C125.108 25.7881 124.924 25.5288 124.752 25.2658C124.636 25.1139 124.482 24.8991 124.28 24.6213C124.107 25.0621 123.931 25.4992 123.766 25.9362C122.837 25.9844 121.911 26.0363 120.985 26.0881C121.188 25.5325 121.45 24.7954 121.757 23.8768C122.068 22.9581 122.454 21.8506 122.878 20.5616C123.14 19.7022 123.391 18.8614 123.601 18.0465C123.815 17.2279 124.017 16.4315 124.19 15.6573C126.101 15.5017 128.023 15.3425 129.946 15.1832C130.032 15.5314 130.208 16.1129 130.448 16.9204C130.688 17.7316 131.007 18.7799 131.415 20.0578C131.636 20.7283 131.898 21.5098 132.198 22.4099C132.498 23.31 132.854 24.3287 133.251 25.4621V25.4658ZM127.203 23.5471C127.087 23.3174 126.903 22.9433 126.622 22.421C126.457 22.1358 126.206 21.7432 125.869 21.2468C125.722 21.5172 125.494 21.9543 125.171 22.5655C125.007 22.9137 124.793 23.3878 124.564 23.9879C124.759 23.9768 125.194 23.9212 125.869 23.8286C126.273 23.7656 126.719 23.6693 127.203 23.5471ZM145.982 17.7909C145.982 18.6391 145.701 19.38 145.15 20.0134C144.685 20.543 144.108 20.9283 143.411 21.1653C143.857 21.295 144.224 21.5172 144.502 21.8358C144.783 22.1506 144.925 22.4951 144.925 22.8618C144.925 23.7767 144.258 24.462 142.935 24.9139C141.912 25.2695 140.578 25.451 138.918 25.5029C137.486 25.5473 135.953 25.5288 134.308 25.4251C134.278 24.8954 134.23 24.1916 134.192 23.3211C134.155 22.4507 134.095 21.4135 134.027 20.2097C133.978 19.5652 133.911 18.8021 133.844 17.9168C133.776 17.0315 133.69 16.0314 133.592 14.9091C134.81 14.6498 136.347 14.4461 138.198 14.3349C140.788 14.1794 142.729 14.3831 144.022 14.9758C145.319 15.5684 145.975 16.5093 145.975 17.7909H145.982ZM142.081 19.2466C142.081 18.8873 141.878 18.6206 141.481 18.4428C141.125 18.2872 140.66 18.228 140.08 18.265C140.031 18.9688 139.982 19.6726 139.933 20.3764C141.365 20.3578 142.077 19.98 142.077 19.2503L142.081 19.2466ZM141.762 22.5988C141.762 22.0543 141.23 21.8024 140.177 21.8395C140.061 21.8432 139.956 21.8506 139.84 21.8654C139.821 22.4359 139.802 23.0063 139.78 23.5767C141.103 23.5767 141.762 23.2545 141.762 22.5951V22.5988ZM156.562 22.9989C156.494 23.1878 156.378 23.5471 156.206 24.0768C156.12 24.3842 156.041 24.7472 155.973 25.1621C153.084 25.0991 150.194 25.0732 147.309 25.0843C147.29 24.5287 147.253 23.7916 147.211 22.8766C147.174 21.958 147.125 20.8616 147.065 19.5874C147.016 18.9355 146.949 18.1576 146.882 17.2575C146.814 16.3611 146.717 15.3351 146.612 14.1868C148.823 14.109 151.045 14.1016 153.268 14.0942C153.17 15.6166 153.073 17.139 152.986 18.6577C152.9 20.1763 152.803 21.6987 152.717 23.2137C153.335 23.2248 154.261 23.1915 155.509 23.1211C155.76 23.11 156.108 23.0693 156.562 23.0026V22.9989ZM167.081 14.9461C167.003 15.6907 166.935 16.4352 166.868 17.1797C166.8 17.9242 166.733 18.6688 166.665 19.4133C166.433 19.3577 165.92 19.2503 165.14 19.1059C164.6 19.017 164.008 18.9392 163.371 18.8688C163.322 19.317 163.274 19.7689 163.225 20.2208C163.93 20.3023 165.08 20.3986 166.665 20.5282C166.598 20.6949 166.493 21.0135 166.336 21.4765C166.238 21.758 166.163 22.0877 166.096 22.4618C165.912 22.4099 165.447 22.3247 164.705 22.1988C164.357 22.1506 163.847 22.0951 163.169 22.0358C163.139 22.5655 163.109 23.0952 163.083 23.6249C163.555 23.6656 164.436 23.7212 165.721 23.7916C165.965 23.799 166.358 23.7804 166.92 23.7434C166.872 23.8879 166.755 24.2286 166.564 24.7732C166.478 25.0547 166.369 25.4103 166.246 25.8436C163.386 25.5584 160.527 25.3769 157.667 25.2214C157.619 24.2842 157.562 23.3434 157.521 22.4062C157.484 21.4691 157.424 20.5282 157.386 19.5874C157.356 18.9466 157.308 18.1724 157.251 17.2723C157.195 16.3722 157.116 15.3425 157.019 14.1831C160.369 14.3127 163.723 14.6016 167.085 14.9572L167.081 14.9461ZM177.031 21.3283C176.559 21.1394 176.199 21.0172 175.948 20.9579C175.649 20.8875 175.379 20.9023 175.128 20.995C174.828 21.1098 174.674 21.3135 174.674 21.6061C174.674 21.8284 174.955 22.3321 175.506 23.1063C176.057 23.8805 176.327 24.5361 176.327 25.0806C176.327 25.8696 175.922 26.4215 175.109 26.74C174.337 27.0438 173.385 27.0401 172.249 26.8401C171.2 26.6548 170.424 26.503 169.922 26.3141C169.873 26.0881 169.768 25.714 169.634 25.2028C169.547 24.9213 169.42 24.5472 169.259 24.0805C169.963 24.3175 170.439 24.4546 170.679 24.4916C171.635 24.6398 172.111 24.4546 172.111 23.9175C172.111 23.5323 171.92 23.147 171.53 22.7729C170.904 22.2655 170.282 21.7617 169.656 21.2505C168.438 20.2652 167.831 19.2318 167.831 18.1354C167.831 17.039 168.412 16.2092 169.559 15.7981C170.563 15.4388 171.897 15.398 173.569 15.7833C174.505 15.9981 175.57 16.3463 176.747 16.8204C176.795 17.5723 176.844 18.3243 176.893 19.0725C176.941 19.8245 176.99 20.5727 177.039 21.3246L177.031 21.3283Z" fill="white"/>
<path fill-rule="evenodd" clip-rule="evenodd" d="M46.3359 76.2937C46.3359 76.2937 30.6895 73.7935 31.2516 51.6614C31.2516 51.6614 31.0642 25.2695 54.1123 21.5654C54.1123 21.5654 75.4738 17.1204 76.4108 45.2717C76.4108 45.2717 75.0991 78.9792 46.3359 76.2937Z" fill="white"/>
<path fill-rule="evenodd" clip-rule="evenodd" d="M82.0323 64.9036L82.9692 70.6894C82.9692 70.6894 89.8086 72.7711 95.7112 67.6335C95.7112 67.6335 100.208 62.9108 94.6806 55.1321C94.6806 55.1321 91.7762 50.965 97.1165 50.0389C97.1165 50.0389 98.6606 49.9019 99.3202 50.3168L98.713 36.7041C98.713 36.7041 89.2502 34.4335 83.209 38.7414C83.209 38.7414 78.1497 42.1195 78.1947 48.2313C78.1947 48.2313 77.5164 52.4688 83.7449 56.8212C83.7449 56.8212 87.635 58.8103 88.0997 62.607C88.0997 62.607 88.8005 65.7074 82.0323 64.8999V64.9036Z" fill="white"/>
<path fill-rule="evenodd" clip-rule="evenodd" d="M115.922 34.7372C115.922 34.7372 130.444 33.5334 130.913 51.9614C130.913 51.9614 130.819 70.3894 115.454 70.2042C115.454 70.2042 102.431 70.019 101.306 54.9247C101.306 54.9247 98.7055 36.7041 115.922 34.7372Z" fill="white"/>
<path fill-rule="evenodd" clip-rule="evenodd" d="M134.286 69.556L132.88 36.5893C132.88 36.5893 148.433 33.163 157.99 40.5712C157.99 40.5712 162.58 43.4419 162.112 52.7948C162.112 52.7948 160.613 59.4622 154.898 60.9439C154.898 60.9439 156.772 63.9998 161.925 69.556C161.925 69.556 153.68 71.871 153.024 72.7045C153.024 72.7045 148.995 67.0557 146.84 62.7033L146.675 70.1338L134.286 69.556Z" fill="white"/>
<path fill-rule="evenodd" clip-rule="evenodd" d="M164.994 71.7562L163.821 39.5785L163.776 38.3747L178.718 40.086L177.384 73.2823L164.994 71.7562Z" fill="white"/>
<path fill-rule="evenodd" clip-rule="evenodd" d="M190.969 41.3343C190.969 41.3343 205.959 39.1118 209.801 58.188C209.801 58.188 211.581 76.8938 198.745 77.2642C198.745 77.2642 187.034 78.1903 182.068 64.8554C182.068 64.8554 176.072 44.7606 190.969 41.3343Z" fill="white"/>
<path fill-rule="evenodd" clip-rule="evenodd" d="M52.9618 45.2236C52.9618 45.2236 47.5277 45.4088 48.0899 55.2247C48.0899 55.2247 47.9962 63.559 53.2429 64.485C53.2429 64.485 58.7707 65.9667 60.4571 53.5579C60.4571 53.5579 60.6445 42.2603 52.9618 45.2236Z" fill="#E30613"/>
<path fill-rule="evenodd" clip-rule="evenodd" d="M115.829 50.1797C115.829 50.1797 120.045 49.1611 120.232 56.2915C120.232 56.2915 119.576 63.3293 116.297 62.3107C116.297 62.3107 112.268 62.8663 112.268 55.3655C112.268 55.3655 112.081 49.9945 115.829 50.1797Z" fill="#E30613"/>
<path fill-rule="evenodd" clip-rule="evenodd" d="M147.309 50.7353V57.6805C147.309 57.6805 151.993 58.6992 152.274 54.9025C152.274 54.9025 152.368 50.4575 147.309 50.7353Z" fill="#E30613"/>
<path fill-rule="evenodd" clip-rule="evenodd" d="M194.578 56.7545C194.578 56.7545 199.405 56.6619 199.544 63.6997C199.544 63.6997 199.075 69.5819 195.983 69.2078C195.983 69.2078 191.767 69.1633 191.629 61.7995C191.629 61.7995 191.209 56.799 194.578 56.7545Z" fill="#E30613"/>
<path fill-rule="evenodd" clip-rule="evenodd" d="M206.203 82.6427C206.203 82.6427 152.799 108.201 71.6624 95.4219C71.6624 95.4219 5.70377 83.1983 0.0823022 53.5653C0.0823022 53.5653 -3.57165 29.0255 38.402 13.0978C38.402 13.0978 76.1595 -3.29292 132.374 0.596408C132.374 0.596408 179.403 1.37798 210.884 19.7874C210.884 19.7874 164.042 -1.62606 105.953 5.59697C105.953 5.59697 58.2645 9.02328 35.7786 26.6178C35.7786 26.6178 20.4133 37.7302 21.1628 50.139C21.1628 50.139 19.4764 72.7341 67.0715 86.4394C67.0715 86.4394 93.9046 95.9404 133.03 94.5884C133.03 94.5884 174.67 95.7441 211 79.146C211 79.146 210.745 79.9127 206.203 82.6427Z" fill="#FFEB00"/>
<path fill-rule="evenodd" clip-rule="evenodd" d="M173.16 86.9913C172.969 86.9135 172.83 86.8653 172.729 86.8505C172.613 86.832 172.504 86.8505 172.407 86.9209C172.291 87.0024 172.223 87.1283 172.223 87.295C172.223 87.4209 172.332 87.6876 172.553 88.0914C172.77 88.4914 172.875 88.847 172.875 89.1582C172.875 89.6027 172.718 89.9434 172.395 90.1768C172.088 90.399 171.717 90.4768 171.26 90.4028C170.848 90.3361 170.54 90.2546 170.342 90.1583C170.327 90.0323 170.286 89.8249 170.226 89.536C170.192 89.3804 170.143 89.173 170.076 88.91C170.357 89.0322 170.548 89.0989 170.638 89.1137C171.02 89.1767 171.2 89.0582 171.2 88.7544C171.2 88.5359 171.125 88.3247 170.975 88.1247C170.728 87.8506 170.477 87.5765 170.229 87.3024C169.75 86.769 169.51 86.1912 169.51 85.5689C169.51 84.9466 169.742 84.4688 170.196 84.2169C170.593 83.9946 171.114 83.9465 171.777 84.065C172.152 84.1317 172.572 84.265 173.036 84.4613C173.051 84.8836 173.07 85.3059 173.085 85.7282C173.1 86.1504 173.126 86.5727 173.152 86.995L173.16 86.9913ZM169.229 83.7724C169.195 84.1909 169.161 84.6132 169.139 85.0355C169.113 85.454 169.09 85.88 169.064 86.2986C168.974 86.269 168.768 86.2023 168.46 86.1097C168.243 86.0541 168.014 86.006 167.763 85.9689C167.737 86.2245 167.722 86.4801 167.707 86.7394C167.981 86.7801 168.434 86.8394 169.064 86.9246C169.038 87.0172 168.989 87.195 168.933 87.458C168.899 87.6173 168.865 87.8025 168.831 88.0099C168.764 87.9803 168.584 87.9284 168.284 87.8469C168.153 87.821 167.943 87.7913 167.681 87.7654C167.666 88.0655 167.647 88.3692 167.64 88.6692C167.831 88.6877 168.179 88.71 168.693 88.7544C168.783 88.7618 168.94 88.7544 169.165 88.7359C169.139 88.8137 169.098 89.01 169.023 89.3137C168.989 89.473 168.94 89.673 168.891 89.9138C167.756 89.7582 166.632 89.6434 165.504 89.5212C165.477 88.9841 165.462 88.4507 165.444 87.9136C165.429 87.3802 165.41 86.8431 165.395 86.306C165.38 85.9393 165.361 85.4948 165.335 84.9836C165.309 84.4687 165.279 83.8798 165.245 83.2205C166.568 83.376 167.895 83.5316 169.225 83.765L169.229 83.7724ZM165.065 88.247C165.039 88.3544 164.998 88.5544 164.923 88.8507C164.889 89.0248 164.855 89.2285 164.833 89.4619C163.69 89.3397 162.547 89.2619 161.407 89.1952C161.4 88.8692 161.381 88.4396 161.374 87.9099C161.366 87.3765 161.344 86.7357 161.317 85.9949C161.302 85.6133 161.269 85.1577 161.242 84.6317C161.216 84.1057 161.175 83.5057 161.134 82.8352C162.011 82.8945 162.888 82.9538 163.765 83.0575C163.723 83.9242 163.682 84.791 163.648 85.6541C163.615 86.5208 163.581 87.3876 163.547 88.2544C163.787 88.2803 164.158 88.2914 164.649 88.2877C164.747 88.2877 164.889 88.2766 165.061 88.2507L165.065 88.247ZM158.608 87.6765C158.567 87.5284 158.492 87.2839 158.376 86.9505C158.308 86.7653 158.211 86.5097 158.079 86.1838C158.02 86.343 157.93 86.6023 157.806 86.9653C157.738 87.1728 157.656 87.458 157.566 87.821C157.641 87.821 157.813 87.8099 158.079 87.7839C158.244 87.7654 158.421 87.7247 158.608 87.6765ZM160.999 89.173C160.302 89.1322 159.609 89.0952 158.923 89.0545C158.874 88.8692 158.825 88.6803 158.78 88.4951C158.724 88.5174 158.582 88.5914 158.349 88.7285C158.199 88.8285 158.035 88.9656 157.851 89.1396C157.776 88.9693 157.701 88.8026 157.637 88.6322C157.596 88.5322 157.529 88.3914 157.446 88.2062C157.379 88.4729 157.315 88.7396 157.247 89.01C156.876 89.0026 156.509 88.9989 156.146 88.9915C156.221 88.6507 156.329 88.1951 156.453 87.6321C156.577 87.0653 156.727 86.3912 156.891 85.6022C156.989 85.0762 157.09 84.5614 157.173 84.065C157.255 83.5649 157.337 83.0797 157.412 82.6056C158.166 82.6463 158.926 82.6945 159.691 82.7463C159.725 82.9649 159.8 83.3316 159.89 83.839C159.98 84.3502 160.111 85.0059 160.272 85.8096C160.354 86.2282 160.463 86.7209 160.579 87.2802C160.695 87.8432 160.845 88.4766 161.003 89.1804L160.999 89.173ZM154.426 85.843C154.426 85.58 154.324 85.3874 154.118 85.2688C153.968 85.1836 153.788 85.1429 153.564 85.1503C153.556 85.6281 153.549 86.106 153.537 86.5801C153.743 86.5801 153.935 86.5357 154.099 86.4356C154.313 86.306 154.422 86.1097 154.422 85.843H154.426ZM156.146 84.9725C156.146 85.4837 156.011 85.9319 155.748 86.3282C155.524 86.6653 155.235 86.9135 154.886 87.0542C154.961 87.1802 155.141 87.4506 155.434 87.8543C155.576 88.0395 155.79 88.2877 156.089 88.5914C155.973 88.6359 155.707 88.747 155.302 88.9396C155.021 89.073 154.755 89.21 154.508 89.3434C154.433 89.2434 154.268 88.9804 154.021 88.5581C153.905 88.3433 153.732 87.984 153.507 87.4765H153.5C153.485 87.9654 153.474 88.4507 153.466 88.9396C152.754 88.9507 152.042 88.9581 151.33 88.973C151.315 88.6655 151.296 88.2618 151.281 87.758C151.266 87.2542 151.24 86.6505 151.214 85.9467C151.199 85.5318 151.18 85.0392 151.158 84.465C151.131 83.8946 151.101 83.239 151.06 82.5056C151.757 82.413 152.394 82.3611 152.964 82.3722C154.025 82.3944 154.819 82.6241 155.347 83.0538C155.876 83.4835 156.149 84.1243 156.149 84.9651L156.146 84.9725ZM150.854 86.2171C150.828 86.4579 150.794 86.9098 150.745 87.5728C150.719 87.9691 150.697 88.4359 150.67 88.9804C150.329 89.0952 149.835 89.1582 149.19 89.1693C148.231 89.1841 147.444 88.9767 146.84 88.5137C146.484 88.2395 146.211 87.8914 146.038 87.4691C145.866 87.0468 145.772 86.5505 145.772 85.98C145.772 85.4096 145.855 84.9429 146.005 84.5095C146.154 84.0761 146.394 83.6983 146.709 83.376C147.297 82.776 148.066 82.4722 149.018 82.4574C149.381 82.45 149.771 82.4796 150.183 82.5315C150.217 82.976 150.251 83.4168 150.284 83.8613C150.318 84.3021 150.352 84.7466 150.393 85.1873C150.228 85.1207 149.988 85.091 149.681 85.0947C149.291 85.1022 148.935 85.2392 148.62 85.5133C148.264 85.8208 148.092 86.206 148.092 86.669C148.092 87.1061 148.242 87.4432 148.538 87.6765C148.793 87.8765 149.085 87.9654 149.415 87.9506C149.389 87.6691 149.374 87.3876 149.355 87.1061C149.34 86.932 149.306 86.6468 149.246 86.2467C149.775 86.2393 150.314 86.2282 150.854 86.2208V86.2171ZM145.465 82.6537C145.431 83.1019 145.405 83.5501 145.382 83.9946C145.356 84.4391 145.334 84.8873 145.307 85.3355C145.206 85.3244 145.008 85.3022 144.704 85.2725C144.49 85.2577 144.258 85.254 144 85.2614C143.973 85.5318 143.958 85.7985 143.943 86.0689C144.224 86.0689 144.682 86.0393 145.311 85.9911C145.278 86.0949 145.24 86.2949 145.18 86.5801C145.143 86.7542 145.113 86.9542 145.079 87.1802C145.004 87.1616 144.824 87.1468 144.532 87.1283C144.389 87.1283 144.191 87.1283 143.928 87.1468C143.913 87.4617 143.895 87.7765 143.887 88.0914C144.078 88.0803 144.427 88.0469 144.929 87.9914C145.026 87.9766 145.184 87.9358 145.409 87.8691C145.382 87.958 145.341 88.1692 145.266 88.5062C145.225 88.6803 145.184 88.8989 145.135 89.1619C144 89.21 142.875 89.2582 141.747 89.3249C141.721 88.7729 141.698 88.221 141.68 87.6691C141.665 87.1172 141.646 86.5653 141.631 86.0134C141.624 85.6356 141.597 85.1799 141.582 84.654C141.567 84.1243 141.526 83.5205 141.492 82.8426C142.819 82.7723 144.142 82.713 145.465 82.6537ZM141.268 82.8575C141.241 83.302 141.219 83.7464 141.2 84.1909C141.185 84.6354 141.166 85.0799 141.151 85.5244C141.054 85.5133 140.897 85.5022 140.679 85.4911C140.548 85.4911 140.331 85.4948 140.023 85.5059C140.016 85.6726 139.982 86.0763 139.948 86.7135C139.933 87.0246 139.907 87.4061 139.888 87.8617C139.873 88.3136 139.84 88.8433 139.806 89.4397C139.195 89.4767 138.58 89.5138 137.977 89.5471C137.97 89.2656 137.943 88.8989 137.928 88.4544C137.913 88.0099 137.891 87.4839 137.861 86.8764C137.842 86.4579 137.812 86.0467 137.786 85.6467C137.58 85.6689 137.381 85.6911 137.183 85.7133C136.999 85.7467 136.819 85.78 136.643 85.8133C136.624 85.3726 136.609 84.9318 136.594 84.491C136.579 84.0502 136.56 83.6094 136.545 83.1686C138.12 83.0612 139.69 82.9575 141.264 82.8538L141.268 82.8575ZM136.324 83.1871C136.309 83.4723 136.276 83.865 136.257 84.3613C136.242 84.8577 136.212 85.4615 136.182 86.1689C136.159 86.6912 136.141 87.2505 136.122 87.8506C136.107 88.4507 136.088 89.0878 136.081 89.7656C135.751 89.4989 135.245 89.1026 134.574 88.5766C134.278 88.3692 133.836 88.0617 133.259 87.6506C133.251 88.021 133.233 88.3951 133.233 88.7655C133.233 89.1359 133.225 89.5064 133.225 89.8768C132.813 89.9064 132.404 89.936 132 89.9657C131.992 89.6842 131.966 89.273 131.951 88.7396C131.936 88.2062 131.906 87.5469 131.868 86.7653C131.838 86.1282 131.801 85.5429 131.771 85.0096C131.737 84.4725 131.704 83.9872 131.67 83.5538C132.299 83.502 132.937 83.4538 133.574 83.402C134.038 83.8613 134.511 84.3169 134.983 84.7725C134.983 84.4354 134.975 84.165 134.968 83.9761C134.96 83.8057 134.941 83.5798 134.927 83.2983C135.391 83.2612 135.852 83.2242 136.324 83.1871ZM131.366 83.5798C131.34 84.1539 131.318 84.7243 131.291 85.2985C131.265 85.8726 131.243 86.443 131.216 87.0172C131.201 87.3876 131.183 87.8247 131.168 88.3284C131.153 88.8322 131.134 89.3989 131.119 90.036C130.407 90.0879 129.695 90.1435 128.99 90.1953C128.942 89.1322 128.9 88.0655 128.859 87.0024C128.818 85.9393 128.777 84.8725 128.735 83.8094C129.612 83.7353 130.489 83.6613 131.366 83.5872V83.5798ZM124.246 86.4505C124.062 86.4171 123.923 86.406 123.822 86.4134C123.706 86.4208 123.601 86.4764 123.5 86.5727C123.376 86.6912 123.316 86.8357 123.316 87.0098C123.316 87.1431 123.425 87.3876 123.646 87.7543C123.863 88.1173 123.968 88.4618 123.968 88.7803C123.968 89.2434 123.811 89.636 123.489 89.9583C123.181 90.2657 122.803 90.4361 122.353 90.4694C121.941 90.4991 121.634 90.4879 121.435 90.4398C121.42 90.3139 121.379 90.1101 121.319 89.8249C121.285 89.673 121.236 89.4693 121.169 89.2174C121.45 89.273 121.641 89.2952 121.731 89.2878C122.113 89.2619 122.293 89.0915 122.293 88.7766C122.293 88.5507 122.218 88.3507 122.068 88.1803C121.821 87.9617 121.57 87.7395 121.323 87.5209C120.843 87.0913 120.603 86.5579 120.603 85.9208C120.603 85.2837 120.835 84.7317 121.289 84.3502C121.686 84.0206 122.207 83.8279 122.87 83.7724C123.241 83.7427 123.665 83.765 124.13 83.8428C124.145 84.2761 124.163 84.7132 124.178 85.1466C124.193 85.58 124.212 86.0134 124.234 86.4468L124.246 86.4505ZM118.534 88.0617C118.534 87.295 118.294 86.932 117.822 86.969C117.358 87.0024 117.125 87.4024 117.125 88.1729C117.125 88.4803 117.189 88.7655 117.309 89.0211C117.447 89.3137 117.616 89.4508 117.815 89.436C118.013 89.4212 118.178 89.2545 118.328 88.9396C118.467 88.6507 118.534 88.3581 118.534 88.0617ZM120.356 87.195C120.356 87.6839 120.288 88.1395 120.183 88.5581C120.075 88.9767 119.895 89.3693 119.67 89.7175C119.194 90.4583 118.568 90.8547 117.815 90.9028C117.046 90.9547 116.417 90.6324 115.937 89.962C115.709 89.6434 115.532 89.2878 115.424 88.8878C115.315 88.4877 115.259 88.0469 115.259 87.5617C115.259 87.0468 115.326 86.5801 115.442 86.1689C115.559 85.7578 115.75 85.3948 115.997 85.0799C116.462 84.4947 117.073 84.1724 117.819 84.1095C118.557 84.0502 119.164 84.2761 119.625 84.8021C119.868 85.0799 120.056 85.417 120.172 85.817C120.288 86.2171 120.363 86.6727 120.363 87.1913L120.356 87.195ZM114.967 84.5688C114.94 85.1281 114.918 85.6911 114.892 86.2504C114.865 86.8098 114.843 87.3691 114.817 87.9321C114.802 88.2951 114.775 88.7211 114.768 89.2137C114.76 89.7064 114.742 90.262 114.727 90.8843C114.015 90.9287 113.303 90.9732 112.598 91.0139C112.549 89.9694 112.508 88.9285 112.467 87.8839C112.426 86.8431 112.384 85.7985 112.343 84.7577C113.213 84.6947 114.09 84.6317 114.967 84.5688ZM112.01 87.3469C111.867 87.3061 111.695 87.295 111.481 87.3024C111.076 87.3246 110.747 87.458 110.496 87.6913C110.207 87.9654 110.065 88.3359 110.065 88.8137C110.065 89.1878 110.173 89.4878 110.406 89.7175C110.631 89.9434 110.927 90.0509 111.29 90.036C111.537 90.0249 111.777 89.9471 112.002 89.8027C111.976 89.9138 111.935 90.1212 111.871 90.425C111.837 90.6213 111.804 90.8324 111.77 91.0473C111.489 91.1769 111.125 91.251 110.687 91.2695C109.885 91.3066 109.203 91.051 108.633 90.4991C108.326 90.2027 108.086 89.8508 107.936 89.4508C107.786 89.0507 107.704 88.5988 107.704 88.0951C107.704 87.6321 107.771 87.2098 107.902 86.8246C108.033 86.443 108.232 86.0986 108.498 85.8022C109.068 85.1577 109.847 84.8095 110.84 84.754C111.32 84.728 111.669 84.7391 111.882 84.7873C111.897 85.2133 111.923 85.6355 111.942 86.0615C111.957 86.4875 111.983 86.9098 112.01 87.3357V87.3469ZM107.423 85.0318C107.396 85.5837 107.374 86.1356 107.348 86.6912C107.321 87.2431 107.299 87.795 107.273 88.347C107.258 88.7026 107.239 89.1248 107.224 89.6101C107.209 90.0953 107.19 90.6435 107.175 91.2584C106.463 91.2732 105.751 91.288 105.047 91.3066C104.998 90.2768 104.957 89.2434 104.915 88.2136C104.874 87.1839 104.833 86.1541 104.792 85.1244C105.669 85.0985 106.546 85.0725 107.423 85.0355V85.0318ZM104.601 85.1281C104.492 85.4615 104.353 85.8985 104.188 86.443C104.023 86.9876 103.825 87.6358 103.592 88.3877C103.484 88.7396 103.353 89.1656 103.221 89.6619C103.09 90.1546 102.94 90.7213 102.775 91.3547C102.337 91.3658 101.899 91.3695 101.46 91.3695C101.37 91.0621 101.254 90.662 101.111 90.162C100.969 89.6619 100.808 89.0656 100.606 88.3766C100.493 87.9951 100.351 87.5395 100.182 87.0098C100.017 86.4801 99.826 85.88 99.6012 85.2059C100.497 85.2096 101.389 85.2133 102.285 85.1985C102.311 85.4503 102.367 85.8615 102.457 86.4356C102.524 86.7394 102.622 87.1579 102.753 87.6913C102.82 87.4283 102.925 87.0024 103.06 86.4134C103.128 86.0949 103.203 85.68 103.274 85.1725C103.712 85.1577 104.151 85.1466 104.597 85.1355L104.601 85.1281ZM97.7798 88.3618C97.7798 88.1099 97.6824 87.9247 97.48 87.8173C97.3301 87.7358 97.139 87.6987 96.9179 87.7099C96.9104 88.1655 96.9029 88.6211 96.8916 89.0767C97.1053 89.0767 97.2889 89.0322 97.4538 88.9322C97.6674 88.8063 97.7761 88.6174 97.7761 88.3618H97.7798ZM99.5038 87.5098C99.5038 88.0025 99.3726 88.4359 99.114 88.81C98.8854 89.1433 98.5931 89.3767 98.252 89.5175C98.3195 89.6397 98.4994 89.8916 98.7917 90.2768C98.9341 90.4546 99.1552 90.688 99.455 90.9806C99.3314 91.025 99.0728 91.1325 98.668 91.3177C98.387 91.4473 98.1134 91.5807 97.866 91.7103C97.7911 91.614 97.6337 91.3658 97.3788 90.9621C97.2627 90.7583 97.0978 90.4176 96.8729 89.936H96.8654C96.8504 90.4028 96.8317 90.8658 96.8242 91.3325C96.1121 91.3066 95.4001 91.2732 94.6955 91.2399C94.6805 90.9473 94.6543 90.562 94.6393 90.0842C94.6243 89.6064 94.5943 89.0322 94.5719 88.3655C94.5606 87.9691 94.5381 87.5024 94.5156 86.9579C94.4894 86.4134 94.4557 85.7911 94.4257 85.0947C95.1115 85.0466 95.7486 85.0503 96.322 85.0651C97.3826 85.091 98.1771 85.2837 98.7055 85.6874C99.2339 86.0912 99.5075 86.6986 99.5075 87.5061L99.5038 87.5098ZM94.0884 85.0836C94.0547 85.5022 94.0322 85.9245 94.006 86.343C93.9797 86.7653 93.9572 87.1839 93.931 87.6024C93.8298 87.5839 93.6312 87.5469 93.3201 87.4913C93.114 87.4617 92.8817 87.4395 92.6231 87.4209C92.5968 87.6728 92.5819 87.9284 92.5669 88.1803C92.8479 88.2025 93.3051 88.2136 93.9348 88.2247C93.901 88.321 93.8635 88.5025 93.8036 88.7692C93.7661 88.9322 93.7286 89.1174 93.7024 89.3249C93.6274 89.3026 93.4438 89.273 93.1552 89.2285C93.0166 89.2137 92.8142 89.2026 92.5519 89.1952C92.5369 89.4915 92.5181 89.7879 92.5106 90.0842C92.7018 90.0916 93.0503 90.0842 93.5525 90.0805C93.6537 90.0805 93.8073 90.0509 94.0247 90.0064C94.0097 90.0879 93.9572 90.2842 93.8935 90.5954C93.8523 90.7546 93.8111 90.9584 93.7624 91.2028C92.6268 91.151 91.495 91.0991 90.367 91.0028C90.3408 90.4805 90.3258 89.9546 90.3108 89.4323C90.2958 88.91 90.2771 88.384 90.2621 87.8617C90.2546 87.5024 90.2358 87.0728 90.2133 86.569C90.1871 86.0652 90.1534 85.4911 90.1122 84.8466C91.4351 84.9651 92.7617 85.0244 94.0959 85.0873L94.0884 85.0836ZM89.8161 87.3283C89.625 87.2654 89.4863 87.2283 89.3851 87.2209C89.2689 87.2098 89.1602 87.2394 89.0628 87.3172C88.9466 87.4098 88.8904 87.5395 88.8904 87.7062C88.8904 87.8321 88.9991 88.0914 89.2127 88.4766C89.4263 88.8618 89.535 89.2063 89.535 89.5138C89.535 89.9583 89.3776 90.3064 89.0553 90.5657C88.748 90.8102 88.377 90.9139 87.9198 90.8732C87.5075 90.8361 87.2002 90.7806 87.0091 90.6991C86.9829 90.5731 86.9416 90.3731 86.8854 90.0879C86.8517 89.936 86.803 89.7323 86.743 89.4767C87.0166 89.573 87.2077 89.6249 87.2977 89.636C87.6799 89.6693 87.8598 89.536 87.8598 89.236C87.8598 89.0174 87.7849 88.8137 87.635 88.6285C87.3876 88.3766 87.1365 88.1247 86.8892 87.8691C86.4095 87.3765 86.1771 86.8209 86.1771 86.206C86.1771 85.5911 86.402 85.0947 86.8554 84.8058C87.2527 84.5539 87.7736 84.4613 88.437 84.5206C88.808 84.5539 89.2315 84.654 89.6962 84.8095C89.7112 85.2318 89.7299 85.6504 89.7449 86.0689C89.7599 86.4875 89.7861 86.9061 89.8123 87.3283H89.8161Z" fill="#E31019"/>
</g>
<defs>
<clipPath id="clip0_15_2717">
<rect width="211" height="99" fill="white"/>
</clipPath>
</defs>
</svg>
