<svg width="27" height="27" viewBox="0 0 27 27" fill="none" xmlns="http://www.w3.org/2000/svg">
<path d="M13.0967 7.29584C9.40764 7.29584 6.43207 10.2721 6.43207 13.9619C6.43207 17.6518 9.40764 20.628 13.0967 20.628C16.7857 20.628 19.7612 17.6518 19.7612 13.9619C19.7612 10.2721 16.7857 7.29584 13.0967 7.29584ZM13.0967 18.2957C10.7127 18.2957 8.7638 16.3522 8.7638 13.9619C8.7638 11.5716 10.7069 9.6281 13.0967 9.6281C15.4864 9.6281 17.4295 11.5716 17.4295 13.9619C17.4295 16.3522 15.4806 18.2957 13.0967 18.2957ZM21.5883 7.02317C21.5883 7.88761 20.8923 8.578 20.0339 8.578C19.1696 8.578 18.4794 7.88181 18.4794 7.02317C18.4794 6.16452 19.1754 5.46833 20.0339 5.46833C20.8923 5.46833 21.5883 6.16452 21.5883 7.02317ZM26.0024 8.60121C25.9038 6.51842 25.4282 4.67351 23.9027 3.15348C22.383 1.63345 20.5385 1.15772 18.4562 1.05329C16.31 0.931456 9.87747 0.931456 7.73134 1.05329C5.65482 1.15192 3.81031 1.62765 2.28483 3.14768C0.759339 4.6677 0.289511 6.51262 0.185105 8.59541C0.0632982 10.742 0.0632982 17.176 0.185105 19.3226C0.283711 21.4054 0.759339 23.2503 2.28483 24.7703C3.81031 26.2904 5.64902 26.7661 7.73134 26.8705C9.87747 26.9924 16.31 26.9924 18.4562 26.8705C20.5385 26.7719 22.383 26.2962 23.9027 24.7703C25.4224 23.2503 25.898 21.4054 26.0024 19.3226C26.1242 17.176 26.1242 10.7478 26.0024 8.60121ZM23.2298 21.6259C22.7774 22.763 21.9016 23.639 20.7589 24.0974C19.0478 24.7761 14.9876 24.6195 13.0967 24.6195C11.2057 24.6195 7.13971 24.7703 5.43441 24.0974C4.29754 23.6448 3.42169 22.7688 2.96347 21.6259C2.28483 19.9144 2.44144 15.8532 2.44144 13.9619C2.44144 12.0706 2.29063 8.00364 2.96347 6.29796C3.41589 5.16084 4.29174 4.2848 5.43441 3.82647C7.14551 3.14768 11.2057 3.30432 13.0967 3.30432C14.9876 3.30432 19.0536 3.15348 20.7589 3.82647C21.8958 4.279 22.7716 5.15504 23.2298 6.29796C23.9085 8.00944 23.7519 12.0706 23.7519 13.9619C23.7519 15.8532 23.9085 19.9202 23.2298 21.6259Z" fill="black"/>
</svg>
