<svg width="45" height="36" viewBox="0 0 45 36" fill="none" xmlns="http://www.w3.org/2000/svg">
<g clip-path="url(#clip0_14_447)">
<path d="M5.83447 23.5439C5.81996 23.5366 5.80545 23.5293 5.79004 23.5219L5.80455 23.5045L5.83447 23.5439Z" fill="#00232E"/>
<path d="M9.74197 28.6765C9.74197 31.1763 8.50506 32.4271 6.03036 32.4271H3.71071C1.23691 32.4271 -0.000900269 31.1772 -0.000900269 28.6765V23.0509C-0.000900269 20.5511 1.236 19.3003 3.71071 19.3003H6.03036C8.50416 19.3003 9.74197 20.5502 9.74197 23.0509V28.6765ZM2.78304 28.6765C2.78304 29.3014 3.09226 29.6139 3.71071 29.6139H6.03036C6.64881 29.6139 6.95803 29.3014 6.95803 28.6765V23.0509C6.95803 22.426 6.64881 22.1135 6.03036 22.1135H3.71071C3.09226 22.1135 2.78304 22.426 2.78304 23.0509V28.6765Z" fill="#00232E"/>
<path d="M17.1652 19.3003C19.2064 19.3003 20.8714 20.9671 20.8768 23.0308C20.8813 24.7315 20.3554 25.6754 19.2999 25.8642C20.3554 26.052 20.8813 26.9968 20.8768 28.6966C20.8714 30.7593 19.2074 32.4271 17.1652 32.4271H12.1641C11.8512 32.4271 11.5982 32.1714 11.5982 31.8553V19.5596C11.5982 19.4167 11.7134 19.3003 11.8549 19.3003H17.1652ZM14.3813 22.5103V24.0608C14.3813 24.2798 14.5572 24.4576 14.7739 24.4576H17.1652C17.6776 24.4576 18.0929 24.0379 18.0929 23.5201V23.0509C18.0929 22.5332 17.6776 22.1135 17.1652 22.1135H14.7739C14.5572 22.1135 14.3813 22.2913 14.3813 22.5103ZM14.3813 27.6666V29.2171C14.3813 29.4361 14.5572 29.6139 14.7739 29.6139H17.1652C17.6776 29.6139 18.0929 29.1942 18.0929 28.6765V28.2073C18.0929 27.6895 17.6776 27.2699 17.1652 27.2699H14.7739C14.5572 27.2699 14.3813 27.4476 14.3813 27.6666Z" fill="#00232E"/>
<path d="M22.7321 32.4262V29.613H28.2991C28.8115 29.613 29.2268 29.1933 29.2268 28.6755V28.2064C29.2268 27.6886 28.8115 27.2689 28.2991 27.2689H26.4438C24.3943 27.2689 22.7321 25.5902 22.7321 23.5183V23.0491C22.7321 20.9781 24.3934 19.2985 26.4438 19.2985H31.385C31.7305 19.2985 32.0107 19.5816 32.0107 19.9307V21.4794C32.0107 21.8285 31.7305 22.1117 31.385 22.1117H26.4438C25.9314 22.1117 25.5161 22.5314 25.5161 23.0491V23.5183C25.5161 24.036 25.9314 24.4557 26.4438 24.4557H28.2991C30.3485 24.4557 32.0107 26.1345 32.0107 28.2064V28.6755C32.0107 30.7465 30.3494 32.4262 28.2991 32.4262H22.7321Z" fill="#00232E"/>
<path d="M45 32.4261H42.6976C42.4119 32.4261 42.1589 32.2383 42.0746 31.9625L41.3546 29.6138H36.5856L35.8647 31.9625C35.7804 32.2383 35.5274 32.4261 35.2417 32.4261H32.9393L36.5575 20.2395C36.7235 19.6814 37.2313 19.2993 37.808 19.2993H40.134C40.7107 19.2993 41.2186 19.6814 41.3845 20.2395L45.0027 32.4261H45ZM38.0792 26.8006H39.8592C40.1793 26.8006 40.4051 26.4836 40.3045 26.1775L39.414 23.4687C39.2716 23.0362 38.6659 23.0362 38.5235 23.4687L37.6339 26.1775C37.5332 26.4845 37.759 26.8006 38.0792 26.8006Z" fill="#00232E"/>
<path d="M6.4221 36V35.6985H7.14302C7.24549 35.6985 7.29627 35.6518 7.29627 35.5574V35.4392C7.29627 35.3448 7.24549 35.2981 7.14302 35.2981H6.89273C6.57898 35.2981 6.42119 35.1506 6.42119 34.8555V34.7373C6.42119 34.4422 6.57807 34.2947 6.89273 34.2947H7.61275V34.5962H6.89273C6.78936 34.5962 6.73767 34.6429 6.73767 34.7373V34.8555C6.73767 34.9499 6.78936 34.9966 6.89273 34.9966H7.14302C7.45587 34.9966 7.61275 35.1441 7.61275 35.4392V35.5574C7.61275 35.8525 7.45587 36 7.14302 36H6.4221Z" fill="url(#paint0_linear_14_447)"/>
<path d="M9.18517 35.5574C9.18517 35.8525 9.02829 36 8.71362 36H8.40168C8.08792 36 7.93013 35.8525 7.93013 35.5574V34.7373C7.93013 34.4422 8.08701 34.2947 8.40168 34.2947H8.71362C9.02738 34.2947 9.18517 34.4422 9.18517 34.7373V35.5574ZM8.24752 35.5574C8.24752 35.6518 8.29921 35.6985 8.40258 35.6985H8.71453C8.81791 35.6985 8.86959 35.6518 8.86959 35.5574V34.7373C8.86959 34.6429 8.81791 34.5962 8.71453 34.5962H8.40258C8.29921 34.5962 8.24752 34.6429 8.24752 34.7373V35.5574Z" fill="url(#paint1_linear_14_447)"/>
<path d="M9.81904 35.6985H10.569V36H9.50346V34.2947H9.81994V35.6985H9.81904Z" fill="url(#paint2_linear_14_447)"/>
<path d="M12.1414 34.2947V35.5574C12.1414 35.8525 11.9845 36 11.6698 36H11.3579C11.0441 36 10.8864 35.8525 10.8864 35.5574V34.2947H11.2028V35.5574C11.2028 35.6518 11.2545 35.6985 11.3579 35.6985H11.6698C11.7732 35.6985 11.8249 35.6518 11.8249 35.5574V34.2947H12.1414Z" fill="url(#paint3_linear_14_447)"/>
<path d="M12.7762 35.5574C12.7762 35.6518 12.8279 35.6985 12.9312 35.6985H13.5261V36H12.9312C12.6175 36 12.4597 35.8525 12.4597 35.5574V34.7373C12.4597 34.4422 12.6166 34.2947 12.9312 34.2947H13.5261V34.5962H12.9312C12.8279 34.5962 12.7762 34.6429 12.7762 34.7373V35.5574Z" fill="url(#paint4_linear_14_447)"/>
<path d="M14.16 34.2947V36H13.8435V34.2947H14.16Z" fill="url(#paint5_linear_14_447)"/>
<path d="M15.7324 35.5574C15.7324 35.8525 15.5755 36 15.2608 36H14.9489C14.6351 36 14.4774 35.8525 14.4774 35.5574V34.7373C14.4774 34.4422 14.6342 34.2947 14.9489 34.2947H15.2608C15.5746 34.2947 15.7324 34.4422 15.7324 34.7373V35.5574ZM14.7947 35.5574C14.7947 35.6518 14.8464 35.6985 14.9498 35.6985H15.2618C15.3651 35.6985 15.4168 35.6518 15.4168 35.5574V34.7373C15.4168 34.6429 15.3651 34.5962 15.2618 34.5962H14.9498C14.8464 34.5962 14.7947 34.6429 14.7947 34.7373V35.5574Z" fill="url(#paint6_linear_14_447)"/>
<path d="M16.3518 34.2947L17.05 35.3833V34.2947H17.3665V36H17.0654L16.3672 34.9114V36H16.0507V34.2947H16.3518Z" fill="url(#paint7_linear_14_447)"/>
<path d="M18.7503 34.9966V35.2981H18.0004V35.6985H18.7503V36H17.6848V34.2947H18.7503V34.5962H18.0004V34.9966H18.7503Z" fill="url(#paint8_linear_14_447)"/>
<path d="M19.0686 36V35.6985H19.7895C19.892 35.6985 19.9428 35.6518 19.9428 35.5574V35.4392C19.9428 35.3448 19.892 35.2981 19.7895 35.2981H19.5392C19.2255 35.2981 19.0677 35.1506 19.0677 34.8555V34.7373C19.0677 34.4422 19.2246 34.2947 19.5392 34.2947H20.2592V34.5962H19.5392C19.4359 34.5962 19.3842 34.6429 19.3842 34.7373V34.8555C19.3842 34.9499 19.4359 34.9966 19.5392 34.9966H19.7895C20.1024 34.9966 20.2592 35.1441 20.2592 35.4392V35.5574C20.2592 35.8525 20.1024 36 19.7895 36H19.0686Z" fill="url(#paint9_linear_14_447)"/>
<path d="M21.6276 35.2981V36H21.3112V34.2947H22.0321C22.3449 34.2947 22.5018 34.4422 22.5018 34.7373V34.8555C22.5018 35.1506 22.3449 35.2981 22.0321 35.2981H21.6276ZM21.6276 34.5962V34.9966H22.0321C22.1346 34.9966 22.1853 34.9499 22.1853 34.8555V34.7373C22.1853 34.6429 22.1346 34.5962 22.0321 34.5962H21.6276Z" fill="url(#paint10_linear_14_447)"/>
<path d="M24.0751 34.2947V35.5574C24.0751 35.8525 23.9183 36 23.6036 36H23.2916C22.9779 36 22.8201 35.8525 22.8201 35.5574V34.2947H23.1366V35.5574C23.1366 35.6518 23.1883 35.6985 23.2916 35.6985H23.6036C23.707 35.6985 23.7587 35.6518 23.7587 35.5574V34.2947H24.0751Z" fill="url(#paint11_linear_14_447)"/>
<path d="M25.1144 34.2947C25.4272 34.2947 25.5841 34.4422 25.5841 34.7373V34.8555C25.5841 35.0122 25.5152 35.1093 25.3773 35.1469C25.5152 35.1854 25.5841 35.2825 25.5841 35.4401V35.5583C25.5841 35.8534 25.4272 36.0009 25.1144 36.0009H24.3934V34.2956H25.1144V34.2947ZM24.7099 34.5962V34.9966H25.1144C25.2168 34.9966 25.2676 34.9499 25.2676 34.8555V34.7373C25.2676 34.6429 25.2168 34.5962 25.1144 34.5962H24.7099ZM24.7099 35.2981V35.6985H25.1144C25.2168 35.6985 25.2676 35.6518 25.2676 35.5574V35.4392C25.2676 35.3448 25.2168 35.2981 25.1144 35.2981H24.7099Z" fill="url(#paint12_linear_14_447)"/>
<path d="M26.2179 35.6985H26.9679V36H25.9024V34.2947H26.2189V35.6985H26.2179Z" fill="url(#paint13_linear_14_447)"/>
<path d="M27.6027 34.2947V36H27.2862V34.2947H27.6027Z" fill="url(#paint14_linear_14_447)"/>
<path d="M28.2366 35.5574C28.2366 35.6518 28.2882 35.6985 28.3916 35.6985H28.9865V36H28.3916C28.0779 36 27.9201 35.8525 27.9201 35.5574V34.7373C27.9201 34.4422 28.077 34.2947 28.3916 34.2947H28.9865V34.5962H28.3916C28.2882 34.5962 28.2366 34.6429 28.2366 34.7373V35.5574Z" fill="url(#paint15_linear_14_447)"/>
<path d="M29.6213 34.2947V36H29.3048V34.2947H29.6213Z" fill="url(#paint16_linear_14_447)"/>
<path d="M31.1302 34.2947V34.5962H30.694V36H30.3775V34.5962H29.9395V34.2947H31.1302Z" fill="url(#paint17_linear_14_447)"/>
<path d="M32.7888 36H32.4687L32.3517 35.6481H31.7586L31.6416 36H31.3215L31.8674 34.2947H32.2401L32.787 36H32.7888ZM31.8557 35.3467H32.2556L32.0561 34.6786L31.8566 35.3467H31.8557Z" fill="url(#paint18_linear_14_447)"/>
<path d="M33.5786 35.2981H33.2984V36H32.9819V34.2947H33.7029C34.0157 34.2947 34.1726 34.4422 34.1726 34.7373V34.8555C34.1726 35.1203 34.0801 35.2642 33.8942 35.288L34.1889 36H33.8679L33.5777 35.2981H33.5786ZM33.2984 34.5962V34.9966H33.7029C33.8053 34.9966 33.8561 34.9499 33.8561 34.8555V34.7373C33.8561 34.6429 33.8053 34.5962 33.7029 34.5962H33.2984Z" fill="url(#paint19_linear_14_447)"/>
<path d="M34.8246 34.2947V36H34.5081V34.2947H34.8246Z" fill="url(#paint20_linear_14_447)"/>
<path d="M36.4832 36H36.1631L36.0461 35.6481H35.453L35.336 36H35.0159L35.5618 34.2947H35.9345L36.4813 36H36.4832ZM35.55 35.3467H35.95L35.7505 34.6786L35.551 35.3467H35.55Z" fill="url(#paint21_linear_14_447)"/>
<path d="M36.6763 36V35.6985H37.3972C37.4997 35.6985 37.5505 35.6518 37.5505 35.5574V35.4392C37.5505 35.3448 37.4997 35.2981 37.3972 35.2981H37.147C36.8332 35.2981 36.6754 35.1506 36.6754 34.8555V34.7373C36.6754 34.4422 36.8323 34.2947 37.147 34.2947H37.867V34.5962H37.147C37.0436 34.5962 36.9919 34.6429 36.9919 34.7373V34.8555C36.9919 34.9499 37.0436 34.9966 37.147 34.9966H37.3972C37.7101 34.9966 37.867 35.1441 37.867 35.4392V35.5574C37.867 35.8525 37.7101 36 37.3972 36H36.6763Z" fill="url(#paint22_linear_14_447)"/>
<path d="M24.0606 8.64858C24.0606 8.80986 24.0561 8.9693 24.0489 9.12875C25.3955 7.48572 26.802 5.41017 26.802 3.9046C26.802 1.01716 24.4859 0 21.6285 0C20.8768 0 20.164 0.0714758 19.5193 0.227257C22.2515 2.0114 24.0606 5.11602 24.0606 8.64858Z" fill="url(#paint23_linear_14_447)"/>
<path d="M16.4542 3.90464C16.4542 6.03975 19.2826 9.32214 20.7562 10.8882C21.2304 11.3913 22.0239 11.3913 22.4982 10.8882C22.9325 10.4263 23.4848 9.81514 24.0479 9.12879C24.0552 8.96934 24.0597 8.80989 24.0597 8.64861C24.0597 5.11697 22.2506 2.01144 19.5184 0.227295C17.7129 0.665314 16.4542 1.77594 16.4542 3.90372V3.90464Z" fill="url(#paint24_linear_14_447)"/>
<path d="M16.4542 3.90464C16.4542 6.03975 19.2826 9.32214 20.7562 10.8882C21.2304 11.3913 22.0239 11.3913 22.4982 10.8882C22.9325 10.4263 23.4848 9.81514 24.0479 9.12879C24.0552 8.96934 24.0597 8.80989 24.0597 8.64861C24.0597 5.11697 22.2506 2.01144 19.5184 0.227295C17.7129 0.665314 16.4542 1.77594 16.4542 3.90372V3.90464Z" fill="url(#paint25_linear_14_447)"/>
<path d="M28.6192 8.46715C27.9645 7.80554 26.9035 7.80554 26.2497 8.46715L23.4367 12.1518C22.7358 14.0505 21.4807 15.6771 19.8702 16.8298C21.3166 17.6582 23.2218 17.3842 24.3626 16.006L28.6192 10.8616C29.2739 10.2 29.2739 9.12785 28.6192 8.46715Z" fill="url(#paint26_linear_14_447)"/>
<path d="M23.4367 12.1509L22.8391 12.9335C22.227 13.7362 21.0291 13.7362 20.4161 12.9335L17.0056 8.46715C16.3509 7.80554 15.2899 7.80554 14.6361 8.46715C13.9813 9.12876 13.9813 10.2009 14.6361 10.8616L18.8927 16.006C19.1765 16.3497 19.5093 16.6236 19.8693 16.8298C21.4798 15.6771 22.7349 14.0505 23.4358 12.1518L23.4367 12.1509Z" fill="url(#paint27_linear_14_447)"/>
<path d="M23.4367 12.1509L22.8391 12.9335C22.227 13.7362 21.0291 13.7362 20.4161 12.9335L17.0056 8.46715C16.3509 7.80554 15.2899 7.80554 14.6361 8.46715C13.9813 9.12876 13.9813 10.2009 14.6361 10.8616L18.8927 16.006C19.1765 16.3497 19.5093 16.6236 19.8693 16.8298C21.4798 15.6771 22.7349 14.0505 23.4358 12.1518L23.4367 12.1509Z" fill="url(#paint28_linear_14_447)"/>
</g>
<defs>
<linearGradient id="paint0_linear_14_447" x1="1.06823" y1="35.4804" x2="42.8281" y2="33.192" gradientUnits="userSpaceOnUse">
<stop stop-color="#EF5A24"/>
<stop offset="1" stop-color="#F67D0F"/>
</linearGradient>
<linearGradient id="paint1_linear_14_447" x1="1.07276" y1="35.5657" x2="42.8326" y2="33.2781" gradientUnits="userSpaceOnUse">
<stop stop-color="#EF5A24"/>
<stop offset="1" stop-color="#F67D0F"/>
</linearGradient>
<linearGradient id="paint2_linear_14_447" x1="1.0773" y1="35.6481" x2="42.8372" y2="33.3597" gradientUnits="userSpaceOnUse">
<stop stop-color="#EF5A24"/>
<stop offset="1" stop-color="#F67D0F"/>
</linearGradient>
<linearGradient id="paint3_linear_14_447" x1="1.08182" y1="35.7187" x2="42.8408" y2="33.4302" gradientUnits="userSpaceOnUse">
<stop stop-color="#EF5A24"/>
<stop offset="1" stop-color="#F67D0F"/>
</linearGradient>
<linearGradient id="paint4_linear_14_447" x1="1.08726" y1="35.8259" x2="42.8471" y2="33.5374" gradientUnits="userSpaceOnUse">
<stop stop-color="#EF5A24"/>
<stop offset="1" stop-color="#F67D0F"/>
</linearGradient>
<linearGradient id="paint5_linear_14_447" x1="1.09004" y1="35.8699" x2="42.8489" y2="33.5814" gradientUnits="userSpaceOnUse">
<stop stop-color="#EF5A24"/>
<stop offset="1" stop-color="#F67D0F"/>
</linearGradient>
<linearGradient id="paint6_linear_14_447" x1="1.09269" y1="35.9313" x2="42.8526" y2="33.6428" gradientUnits="userSpaceOnUse">
<stop stop-color="#EF5A24"/>
<stop offset="1" stop-color="#F67D0F"/>
</linearGradient>
<linearGradient id="paint7_linear_14_447" x1="1.09815" y1="36.0211" x2="42.858" y2="33.7326" gradientUnits="userSpaceOnUse">
<stop stop-color="#EF5A24"/>
<stop offset="1" stop-color="#F67D0F"/>
</linearGradient>
<linearGradient id="paint8_linear_14_447" x1="1.10269" y1="36.1045" x2="42.8625" y2="33.8169" gradientUnits="userSpaceOnUse">
<stop stop-color="#EF5A24"/>
<stop offset="1" stop-color="#F67D0F"/>
</linearGradient>
<linearGradient id="paint9_linear_14_447" x1="1.10723" y1="36.186" x2="42.8662" y2="33.8976" gradientUnits="userSpaceOnUse">
<stop stop-color="#EF5A24"/>
<stop offset="1" stop-color="#F67D0F"/>
</linearGradient>
<linearGradient id="paint10_linear_14_447" x1="1.11266" y1="36.2859" x2="42.8725" y2="33.9983" gradientUnits="userSpaceOnUse">
<stop stop-color="#EF5A24"/>
<stop offset="1" stop-color="#F67D0F"/>
</linearGradient>
<linearGradient id="paint11_linear_14_447" x1="1.1181" y1="36.384" x2="42.877" y2="34.0955" gradientUnits="userSpaceOnUse">
<stop stop-color="#EF5A24"/>
<stop offset="1" stop-color="#F67D0F"/>
</linearGradient>
<linearGradient id="paint12_linear_14_447" x1="1.12263" y1="36.4701" x2="42.8825" y2="34.1816" gradientUnits="userSpaceOnUse">
<stop stop-color="#EF5A24"/>
<stop offset="1" stop-color="#F67D0F"/>
</linearGradient>
<linearGradient id="paint13_linear_14_447" x1="1.12807" y1="36.5636" x2="42.887" y2="34.2751" gradientUnits="userSpaceOnUse">
<stop stop-color="#EF5A24"/>
<stop offset="1" stop-color="#F67D0F"/>
</linearGradient>
<linearGradient id="paint14_linear_14_447" x1="1.13065" y1="36.6195" x2="42.8908" y2="34.331" gradientUnits="userSpaceOnUse">
<stop stop-color="#EF5A24"/>
<stop offset="1" stop-color="#F67D0F"/>
</linearGradient>
<linearGradient id="paint15_linear_14_447" x1="1.1345" y1="36.6882" x2="42.8943" y2="34.3997" gradientUnits="userSpaceOnUse">
<stop stop-color="#EF5A24"/>
<stop offset="1" stop-color="#F67D0F"/>
</linearGradient>
<linearGradient id="paint16_linear_14_447" x1="1.13724" y1="36.7322" x2="42.897" y2="34.4437" gradientUnits="userSpaceOnUse">
<stop stop-color="#EF5A24"/>
<stop offset="1" stop-color="#F67D0F"/>
</linearGradient>
<linearGradient id="paint17_linear_14_447" x1="1.13986" y1="36.7798" x2="42.8988" y2="34.4914" gradientUnits="userSpaceOnUse">
<stop stop-color="#EF5A24"/>
<stop offset="1" stop-color="#F67D0F"/>
</linearGradient>
<linearGradient id="paint18_linear_14_447" x1="1.14532" y1="36.8925" x2="42.9052" y2="34.6041" gradientUnits="userSpaceOnUse">
<stop stop-color="#EF5A24"/>
<stop offset="1" stop-color="#F67D0F"/>
</linearGradient>
<linearGradient id="paint19_linear_14_447" x1="1.14986" y1="36.9622" x2="42.9088" y2="34.6737" gradientUnits="userSpaceOnUse">
<stop stop-color="#EF5A24"/>
<stop offset="1" stop-color="#F67D0F"/>
</linearGradient>
<linearGradient id="paint20_linear_14_447" x1="1.15268" y1="37.0227" x2="42.9124" y2="34.7342" gradientUnits="userSpaceOnUse">
<stop stop-color="#EF5A24"/>
<stop offset="1" stop-color="#F67D0F"/>
</linearGradient>
<linearGradient id="paint21_linear_14_447" x1="1.15713" y1="37.0978" x2="42.917" y2="34.8102" gradientUnits="userSpaceOnUse">
<stop stop-color="#EF5A24"/>
<stop offset="1" stop-color="#F67D0F"/>
</linearGradient>
<linearGradient id="paint22_linear_14_447" x1="1.16079" y1="37.1675" x2="42.9206" y2="34.8799" gradientUnits="userSpaceOnUse">
<stop stop-color="#EF5A24"/>
<stop offset="1" stop-color="#F67D0F"/>
</linearGradient>
<linearGradient id="paint23_linear_14_447" x1="19.5184" y1="4.56437" x2="26.801" y2="4.56437" gradientUnits="userSpaceOnUse">
<stop stop-color="#EF5A24"/>
<stop offset="1" stop-color="#F67D0F"/>
</linearGradient>
<linearGradient id="paint24_linear_14_447" x1="11.9609" y1="16.0528" x2="27.387" y2="-2.61926" gradientUnits="userSpaceOnUse">
<stop stop-color="#EF5A24"/>
<stop offset="1" stop-color="#F67D0F"/>
</linearGradient>
<linearGradient id="paint25_linear_14_447" x1="15.9999" y1="8.46168" x2="24.1604" y2="3.63437" gradientUnits="userSpaceOnUse">
<stop stop-color="#EF5A24"/>
<stop offset="1" stop-color="#F67D0F"/>
</linearGradient>
<linearGradient id="paint26_linear_14_447" x1="18.1418" y1="21.1578" x2="33.5669" y2="2.48573" gradientUnits="userSpaceOnUse">
<stop stop-color="#EF5A24"/>
<stop offset="1" stop-color="#F67D0F"/>
</linearGradient>
<linearGradient id="paint27_linear_14_447" x1="13.6177" y1="17.4209" x2="29.0428" y2="-1.25117" gradientUnits="userSpaceOnUse">
<stop stop-color="#EF5A24"/>
<stop offset="1" stop-color="#F67D0F"/>
</linearGradient>
<linearGradient id="paint28_linear_14_447" x1="13.7891" y1="7.03031" x2="22.5807" y2="15.2773" gradientUnits="userSpaceOnUse">
<stop stop-color="#EF5A24"/>
<stop offset="1" stop-color="#F67D0F"/>
</linearGradient>
<clipPath id="clip0_14_447">
<rect width="45" height="36" fill="white"/>
</clipPath>
</defs>
</svg>
