<svg width="1280" height="410" viewBox="0 0 1280 410" fill="none" xmlns="http://www.w3.org/2000/svg">
<path d="M653.5 76.2791C425.1 18.7519 119.333 89.1247 -5 131.502L-18 410C132.333 363.12 477.1 287.636 653.5 360.736C829.9 433.837 1156 391.195 1297 360.736V0C1177.67 49.396 881.9 133.806 653.5 76.2791Z" fill="#4590B8"/>
<path d="M653.5 76.2791C425.1 18.7519 119.333 89.1247 -5 131.502L-18 410C132.333 363.12 477.1 287.636 653.5 360.736C829.9 433.837 1156 391.195 1297 360.736V0C1177.67 49.396 881.9 133.806 653.5 76.2791Z" fill="url(#paint0_linear_46_973)" fill-opacity="0.2"/>
<defs>
<linearGradient id="paint0_linear_46_973" x1="639.5" y1="-1.70633e-05" x2="1093.68" y2="486.185" gradientUnits="userSpaceOnUse">
<stop stop-opacity="0"/>
<stop offset="1"/>
</linearGradient>
</defs>
</svg>
