<svg width="1280" height="516" viewBox="0 0 1280 516" fill="none" xmlns="http://www.w3.org/2000/svg">
<path d="M653 96C424.6 23.6 118.833 112.167 -5.5 165.5L-18.5 516C131.833 457 476.6 362 653 454C829.4 546 1155.5 492.333 1296.5 454V0C1177.17 62.1667 881.4 168.4 653 96Z" fill="#4590B8"/>
<path d="M653 96C424.6 23.6 118.833 112.167 -5.5 165.5L-18.5 516C131.833 457 476.6 362 653 454C829.4 546 1155.5 492.333 1296.5 454V0C1177.17 62.1667 881.4 168.4 653 96Z" fill="url(#paint0_linear_46_973)" fill-opacity="0.2"/>
<defs>
<linearGradient id="paint0_linear_46_973" x1="639" y1="-2.14748e-05" x2="1204.5" y2="481" gradientUnits="userSpaceOnUse">
<stop stop-opacity="0"/>
<stop offset="1"/>
</linearGradient>
</defs>
</svg>
